<svg xmlns="http://www.w3.org/2000/svg" viewBox="0 0 2048 2048" fill="#F7F4F1">
<defs><style>.waves{fill:#6000ff}</style></defs>
<path d="M1469 2048h-55c-2.1-.4-4.19-1.1-6.3-1.16-25.46-.7-50.66-3.77-75.74-8.07-54.49-9.34-106.29-26.53-154.88-53.04-55.12-30.07-102.11-69.8-140.94-119.12-38.53-48.93-66.3-103.49-84.91-162.84-14.35-45.77-22.72-92.67-24.56-140.5-.98-25.39.08-50.96 1.83-76.33 1.41-20.48 4.29-40.98 8.19-61.15 9.79-50.52 26.44-98.76 50.39-144.43 31.21-59.53 72.44-110.84 125.35-152.39 81.08-63.67 174.3-95.09 276.29-102.69 7.71-.57 15.43-1.05 23.14-1.57-2.63-.74-5.28-1.14-7.89-.95-26.19 1.87-52.47 2.95-78.53 5.96-43.46 5.02-85.42 16.42-125.99 32.85-76.05 30.79-139.55 78.4-190.4 142.73-34.15 43.2-59.78 91.15-78.21 142.98-17.7 49.78-28.06 101.14-30.78 153.82-1.28 24.7-.7 49.61.85 74.32 1.4 22.32 4.26 44.67 8.28 66.68 9.28 50.82 25.87 99.31 49.63 145.25 36.66 70.87 87.15 129.7 153.31 174.55 75.62 51.26 159.95 76.89 250.53 83.49 7.12.52 14.24 1.08 21.35 1.62h-49c-8.08-.74-16.14-1.68-24.24-2.2-29.74-1.92-59.1-6.36-88.1-13.15-80.95-18.96-153-55.03-214.58-111.39-41.12-37.63-74.1-81.43-99.88-130.71-37.78-72.21-56.93-149.43-60.64-230.55-1.25-27.26-.37-54.57 2.52-81.8 3.06-28.79 7.83-57.25 15.27-85.2 27.03-101.47 77.84-188.27 158.85-256.3 46.09-38.7 98.16-66.53 155.21-85.33 52.36-17.26 106.36-24.56 161.21-27.27 20.42-1.01 40.86-2.5 61.13-5.06 38-4.8 75.12-13.59 111.22-26.61 82.85-29.89 152.14-78.85 207.07-147.74 40.84-51.22 69.64-108.77 88.38-171.47 13.05-43.68 20.58-88.33 22.6-133.78.93-20.93.72-42.04-.91-62.91-1.96-25.13-4.76-50.32-9.37-75.09-9.73-52.3-27.43-102.01-52.63-148.94-26.9-50.07-61.23-94.34-103.89-131.99-34.06-30.06-71.8-54.54-113.16-73.38-58.24-26.53-119.48-41.06-183.22-45.49-6.95-.48-13.9-1.08-20.85-1.62h233c7.89.75 15.8 1.36 23.67 2.27 20.11 2.32 40.36 3.85 60.27 7.36 54.19 9.55 105.77 26.98 154.09 53.64 52.4 28.91 97.4 66.66 135.06 113.12 39.09 48.22 67.63 102.16 86.76 161.15 2.65 8.18 5.43 16.31 8.15 24.46v300c-.75 1.8-1.68 3.55-2.22 5.41-21.31 73.63-56.09 139.91-107.27 197.3-37.55 42.1-81.37 76.11-131.49 101.91-63.87 32.87-131.99 50.27-203.48 55.15-7.12.49-14.25 1.02-21.37 1.53 2.49.97 4.96 1.02 7.42.96 28.79-.65 57.39-3.18 85.83-7.8 50.54-8.2 99.01-22.95 144.83-45.88 92.45-46.27 161.27-116.35 208.33-208.08 6.97-13.58 12.97-27.66 19.42-41.5v107c-1.15 1.11-2.42 2.13-3.43 3.35-9.88 11.91-19.35 24.19-29.63 35.74-37.66 42.27-82.16 75.76-132.6 101.26-62.72 31.71-129.53 48.47-199.46 53.39-7.6.53-15.2 1.02-22.8 1.52 2.45.76 4.91 1 7.37 1 26.66 0 53.14-2.18 79.55-5.74 40.85-5.52 80.55-15.45 118.96-30.4 51.83-20.18 99.04-48.11 140.27-85.57 14.52-13.19 27.88-27.66 41.77-41.55v51c-1.66 1.07-3.44 1.98-4.96 3.22-46.95 38.16-99.68 65.36-157.26 83.59-54.21 17.16-110.1 22.78-166.49 26-22.03 1.26-44.07 3.62-65.9 6.88-54.52 8.14-106.34 24.96-155.2 50.63-55.88 29.36-103.69 68.58-143.45 117.63-34.16 42.14-60.19 88.86-79.28 139.56-20.73 55.03-31.89 112.05-34.52 170.67-.9 20.09-.56 40.35.91 60.41 1.72 23.49 4.17 47.05 8.29 70.22 9.64 54.2 27.56 105.71 53.57 154.31 26.82 50.11 61.12 94.39 103.72 132.08 36.69 32.46 77.62 58.36 122.62 77.75 55.61 23.97 113.77 37.26 174.1 41.43 6.95.48 13.9 1.08 20.84 1.62h-233c-1.76-.36-3.51-.86-5.29-1.05-23.29-2.41-46.7-3.97-69.85-7.33-48.82-7.09-95.5-21.63-139.98-43.01-62.39-30-115.37-71.99-158.82-125.85-42.56-52.76-72.3-112.21-91.29-177.17-11.75-40.21-18.75-81.27-21.2-123.01-1.14-19.41-1.12-38.98-.12-58.4 1.14-22.03 2.97-44.13 6.26-65.94 6.74-44.68 19.19-87.86 37.11-129.43 25.41-58.94 60.35-111.34 106.33-156.29 32.03-31.31 67.87-57.37 107.56-78.02 64.51-33.56 133.4-51.36 205.77-56.28 7.1-.48 14.19-1.05 21.29-1.58-.83-.6-1.64-.76-2.44-.71-24.38 1.61-48.89 2.21-73.12 5.11-41.87 5.01-82.58 15.29-121.98 30.54-70.24 27.18-130.61 68.64-180.59 124.99-33.16 37.39-59.47 79.25-79.88 124.86-28.52 63.71-43.73 130.63-46.75 200.17-1.08 24.88.47 49.92 1.68 74.85 1.36 28.11 6.42 55.76 12.99 83.09 20.26 84.19 57.57 159.59 115.91 224.11 41.43 45.82 90.24 81.61 146.19 107.71 59.28 27.66 121.76 42.55 186.87 47.03 6.78.47 13.56 1.07 20.34 1.6Zm80.04-.58c-.01-.23-.03-.46-.04-.68-17.91-2.33-35.86-4.31-53.71-7.05-45.24-6.94-88.85-19.69-130.44-38.81-97.79-44.95-170.9-115.93-220.73-211.03-35.48-67.71-54.24-140.16-59.6-216.18-1.9-26.92-1.55-53.88.58-80.84 2.18-27.55 6.06-54.79 12.17-81.72 20.31-89.43 59.81-168.92 122.7-236.24 41.22-44.13 89.5-78.47 144.39-103.49 54.36-24.78 111.52-38.96 170.96-44.18 4.61-.4 9.21-.96 13.81-1.44l-.12-1.29c-4.91.39-9.82.89-14.74 1.15-27.28 1.42-54.23 5.43-80.85 11.31-97.71 21.59-182.09 66.97-250.33 141-38.44 41.69-68.13 88.97-90.22 141.07-26.43 62.33-40.07 127.55-42.97 195.05-1.33 30.98.1 61.93 4.01 92.7 3.85 30.35 9.95 60.27 18.72 89.62 27.71 92.64 76.02 172.29 149.65 235.62 64.27 55.27 139.03 89.11 221.93 105.19 20.67 4.01 41.69 6.23 62.6 8.94 7.34.95 14.82.91 22.23 1.32Zm-26.24-1025.18c.01.35.03.69.04 1.04 2.27 0 4.57.22 6.82-.03 19.8-2.2 39.68-3.89 59.37-6.87 55.34-8.38 107.89-25.47 157.41-51.73 51.36-27.24 95.86-63.03 133.64-107.16 35.06-40.95 62.16-86.71 82.34-136.66 22.23-55 34.89-112.21 38.62-171.29 1.37-21.71 1.42-43.65.1-65.36-1.52-24.99-4-50.06-8.23-74.72-9.01-52.59-26.09-102.66-50.6-150.15-26.47-51.29-60.75-96.63-103.56-135.33-50.25-45.44-108.12-77.69-172.57-98.31-43.89-14.04-88.99-21.53-134.85-24.86-2.81-.2-5.65-.03-8.48-.03.47 1.12.91 1.35 1.38 1.4 19.43 2.36 38.98 4.03 58.29 7.18 57.78 9.44 112.3 28.46 163.2 57.5 49.14 28.04 91.51 64.14 127.37 107.9 34.06 41.57 60.13 87.76 79.34 137.86 20.08 52.37 31.58 106.69 35 162.58 1.3 21.22.57 42.59.28 63.88-.35 25.32-3.69 50.38-8.26 75.23-10.09 54.96-27.75 107.35-54.21 156.68-27.85 51.92-63.71 97.49-108.37 135.95-40.74 35.08-86.43 62.02-136.66 81.2-46.08 17.6-93.75 28.27-142.86 32.6-4.86.43-9.7.98-14.55 1.48Zm65.61 1021.12c.04-.37.09-.74.13-1.11-2.56-.48-5.11-1.05-7.68-1.43-38.1-5.55-75.13-15.16-111.07-29.01-72.9-28.12-135-71.62-185.78-131-39.48-46.16-68.81-98.26-89.26-155.4-20.91-58.41-31.64-118.68-32.35-180.7-.15-13.31-.05-26.67.98-39.93 1.57-20.36 3.11-40.79 6.31-60.93 6.77-42.62 18.56-83.91 35.39-123.75 29.53-69.85 72.03-130.35 129.73-179.76 62.93-53.88 135.83-87.32 216.68-103.98 12.29-2.53 24.69-4.5 37.04-6.73-1.42-.74-2.88-.98-4.24-.71-23.12 4.56-46.5 8.11-69.29 13.99-70.87 18.29-134.5 51.04-189.8 99.18-58.62 51.01-101.38 113.38-130.44 185.28-22.66 56.08-35.44 114.49-38.72 174.78-1.33 24.53-.22 49.24.66 73.84 1.01 28.28 5.65 56.15 11.88 83.75 20.81 92.21 61.7 173.85 127.5 242.41 45.78 47.7 99.7 83.3 160.9 107.99 36.8 14.85 74.99 24.75 114.13 31.04 5.73.92 11.52 1.47 17.29 2.2Zm-104.89-1024.88v.65c1.39 0 2.81.17 4.18-.03 29.47-4.21 58.59-10.06 87.06-18.84 101.56-31.31 184.16-89.31 245.9-176.04 59.37-83.39 89.03-177.3 95.33-278.83 1.51-24.34.16-48.9-.67-73.34-.91-26.95-5.23-53.54-11-79.86-20.57-93.87-61.71-177.03-128.73-246.67-42.95-44.63-93.13-78.72-149.97-103.19-42.07-18.11-85.95-29.6-131.12-36.48-3.61-.55-7.27-.74-10.9-1.09 6.56 2.13 13.21 3.31 19.86 4.43 47.64 8 93.34 22.21 136.71 43.53 92.33 45.39 161.43 114.62 208.99 205.48 37.86 72.33 56.79 149.82 60.34 231.11 1.68 38.48-.67 76.86-7.01 114.88-8.59 51.57-23.71 101.13-46.59 148.26-30.47 62.77-71.89 117.03-125.92 161.33-60.22 49.37-129.09 80.74-205.03 96.92-13.74 2.93-27.61 5.21-41.42 7.79Z"/>
<path d="M0 1327v-107c1.15-1.11 2.48-2.09 3.42-3.35 24.54-32.88 52.6-62.37 84.92-87.67 81.17-63.56 174.31-95.08 276.3-102.7 7.76-.58 15.52-1.03 23.29-1.54-1.78-.73-3.58-1.06-5.35-.95-26.21 1.65-52.55 2.25-78.6 5.31-41.88 4.92-82.59 15.36-121.94 30.75-51.8 20.26-99.04 48.12-140.27 85.59-14.52 13.2-27.88 27.67-41.77 41.56v-51c1.53-.96 3.18-1.77 4.57-2.9 29.56-24.12 61.74-44.04 96.3-60.18 61.35-28.65 126.22-42.86 193.45-47.56 27.7-1.94 55.5-3.16 83.06-6.36 38.2-4.44 75.45-13.57 111.71-26.62 61.63-22.17 116.49-55.41 163.91-100.59 42.02-40.04 75.16-86.59 100.48-138.83 32.79-67.67 50.08-139.27 53.48-214.12 1.15-25.21-.07-50.62-1.84-75.83-1.45-20.65-4.41-41.31-8.32-61.66-10.02-52.24-27.5-101.99-52.71-148.91-26.9-50.07-61.23-94.33-103.89-131.97-34.06-30.06-71.8-54.54-113.15-73.37-58.24-26.54-119.47-41.06-183.2-45.48C336.9 1.14 329.95.54 323 0h233c2.59.39 5.18.9 7.79 1.16 21.48 2.13 43.11 3.31 64.43 6.51 42.69 6.42 84.04 18.02 123.81 35.08 70.55 30.26 130.25 74.98 178.16 134.92 70.14 87.74 104.97 189.03 112.15 300.26 1.61 25 .82 50.29-.89 75.31-1.63 23.79-4.71 47.64-9.26 71.05-11.61 59.72-32.9 115.94-64.36 168.17-34.43 57.16-78.55 105.32-133.5 143.3-76.55 52.91-162.13 79.34-254.36 85.99-7.25.52-14.49 1.07-21.74 1.61.83.59 1.65.75 2.45.69 22.88-1.52 45.84-2.4 68.64-4.74 39.65-4.07 78.18-13.44 115.69-26.94 82.87-29.83 152.14-78.84 207.06-147.73 40.83-51.23 69.67-108.76 88.36-171.48 13.55-45.46 21.44-91.9 22.69-139.27.63-23.76.03-47.67-2.04-71.33-2.07-23.77-5.5-47.55-10.36-70.91-12.63-60.79-35.44-117.7-68.75-170.23-37.32-58.85-85.06-107.42-144.1-144.6C764.97 30.9 684.85 7.65 599.34 1.6 592.56 1.12 585.78.53 579 0h55c2.1.4 4.18.96 6.3 1.18 24.11 2.45 48.39 3.78 72.31 7.48 41.66 6.46 81.91 18.35 120.65 35.21 62.66 27.27 116.79 66.32 161.98 117.54 46.02 52.17 78.66 111.96 100.05 178.03 15.19 46.92 23.79 95.09 26.1 144.25 1.01 21.42.61 43.01-.89 64.4-1.63 23.15-4.18 46.35-8.29 69.18-9.51 52.82-26.83 103.12-51.93 150.67-30.08 56.98-69.43 106.49-119.61 147.02-82.07 66.3-177.04 98.96-281.37 106.75-7.72.58-15.44 1.05-23.16 1.57 10.46.1 20.95.73 31.33-.03 20.7-1.52 41.45-3.08 62-5.92 55.79-7.7 108.88-24.33 158.97-50.2 57.79-29.84 106.96-70.26 147.69-120.96 33.12-41.22 58.5-86.8 77.23-136.19 20.19-53.22 31.69-108.35 34.64-165.08 1.27-24.37.67-48.96-.88-73.33-1.43-22.32-4.27-44.67-8.29-66.68-9.28-50.81-25.85-99.3-49.62-145.24-36.65-70.86-87.14-129.71-153.3-174.55C860.28 33.86 775.95 8.2 685.36 1.62 678.24 1.1 671.12.54 664 0h49c8.08.75 16.17 1.34 24.23 2.28 20.12 2.33 40.38 3.92 60.3 7.4 51.72 9.05 101.07 25.4 147.56 50.11 51.66 27.45 96.47 63.4 134.38 107.89 29.21 34.29 52.96 72.11 71.77 113.04 30.45 66.28 46.18 136.1 49.23 208.77 1.12 26.77.25 53.56-2.58 80.31-3.06 28.97-7.84 57.59-15.36 85.69-27.14 101.43-78.04 188.2-159.11 256.15-45.98 38.54-97.94 66.27-154.82 85.01-52.36 17.25-106.37 24.41-161.2 27.34-25.04 1.34-50.15 3.37-74.94 7.06-55.64 8.28-108.71 25.09-158.61 51.42-55.68 29.39-103.39 68.48-143.05 117.38-34.17 42.13-60.25 88.84-79.31 139.56-21.29 56.64-32.64 115.29-34.69 175.68-.63 18.61-.43 37.36 1.03 55.92 1.85 23.49 4.25 47.04 8.39 70.22 9.62 53.86 27.43 105.06 53.24 153.4 26.94 50.45 61.43 94.98 104.32 132.87 36.6 32.33 77.4 58.11 122.24 77.45 55.61 23.99 113.78 37.27 174.11 41.44 6.95.48 13.9 1.08 20.85 1.62h-233c-1.92-.4-3.83-.96-5.78-1.16-23.11-2.38-46.36-3.79-69.32-7.21-57.86-8.62-112.58-27.02-163.85-55.37-52.83-29.21-98.01-67.51-135.76-114.56-38.85-48.42-67-102.56-85.98-161.58-2.38-7.39-4.87-14.75-7.31-22.12v-300c.78-1.97 1.72-3.9 2.3-5.92 7.69-26.71 17.29-52.72 29.09-77.88 20.33-43.35 46.08-83.18 78.07-118.93 37.05-41.4 80.07-75.11 129.3-100.76 64.46-33.59 133.35-51.35 205.7-56.28 7.13-.48 14.25-1.02 21.37-1.53-2.49-.97-4.96-1.02-7.42-.96-28.79.66-57.39 3.18-85.84 7.79-50.54 8.21-99.01 22.96-144.84 45.88-92.79 46.42-161.68 116.89-208.81 208.96-6.77 13.29-12.61 27.07-18.9 40.62Zm525.23-301.3.03-.5c-.92-.15-1.86-.5-2.76-.43-11.26.89-22.53 1.74-33.77 2.79-30.69 2.84-60.8 8.8-90.43 17.15-77.24 21.77-145.26 59.8-202.72 116.06-42.09 41.22-74.95 89-99.69 142.45-31.14 67.27-47 138.17-50.03 212.01-1.55 37.66.93 75.19 7.04 112.4 8.42 51.29 23.35 100.61 45.92 147.5 31.46 65.36 74.71 121.52 131.52 166.86 60.57 48.34 129.44 79.01 205.19 94.17 22.27 4.46 44.94 6.91 67.48 9.95 7.31.98 14.77.89 22.16 1.29-.49-1.27-1.07-1.53-1.67-1.6-19.44-2.36-38.97-4.09-58.29-7.17-43.37-6.94-85.08-19.72-125.01-38.01-55.15-25.26-103.58-59.92-145.06-104.31-36.74-39.31-65.69-83.72-87.78-132.67-30.08-66.63-45.14-136.76-47.84-209.61-1.27-34.33.92-68.56 6.06-102.51 7.33-48.34 20.46-95.05 40.31-139.84 29.26-66.02 70.42-123.3 125.15-170.51 44.48-38.37 94.75-66.86 150.21-86.22 38.91-13.58 78.86-22.46 119.85-26.71 8.04-.83 16.08-1.68 24.13-2.51Zm-26.27-3.34c-.03.19-.05.38-.08.57.79.11 1.6.34 2.38.3 4.15-.25 8.28-.63 12.43-.86 26.43-1.49 52.52-5.38 78.4-10.88 86-18.27 162.26-55.61 227.06-115.53 40.79-37.71 73.56-81.52 98.97-130.8 33.63-65.22 52.65-134.61 58.35-207.75 2.36-30.28 2.38-60.49.03-90.78-2.35-30.23-6.99-60.05-14.25-89.45-20.97-84.92-59.32-160.7-119.07-225.13-49.82-53.72-109.45-92.71-177.92-118.43C614.32 14.5 561.44 4.62 507.31.8c-2.8-.2-5.63-.03-8.45-.03.47 1.13.92 1.35 1.38 1.41 19.44 2.36 38.99 4.02 58.29 7.18 57.26 9.39 111.34 28.15 161.9 56.8 49.69 28.16 92.5 64.47 128.67 108.64 33.72 41.18 59.57 86.9 78.75 136.5 20.36 52.66 31.98 107.26 35.55 163.48 1.36 21.38.59 42.92.3 64.39-.35 25.32-3.69 50.39-8.27 75.24-10 54.28-27.36 106.06-53.32 154.91-27.98 52.66-64.15 98.79-109.32 137.71-40.87 35.22-86.74 62.17-137.14 81.37-40.09 15.27-81.48 25.37-124.09 30.37-10.85 1.27-21.72 2.41-32.58 3.61Zm65.58 7.25v-.73c-1.43 0-2.89-.22-4.27.03-17.8 3.23-35.75 5.85-53.36 9.91-76.9 17.73-146.02 51.34-205.72 103.27-58.63 51-101.38 113.39-130.43 185.28-22.66 56.08-35.44 114.49-38.71 174.78-1.33 24.53-.24 49.24.67 73.84 1.1 29.96 6.05 59.46 12.96 88.61 25.23 106.34 76.26 197.42 159.95 268.98 46.77 39.99 99.91 68.63 158.3 87.74 29.1 9.52 58.89 16.11 89.12 20.76 3.77.58 7.59.81 11.38 1.2-4.75-1.88-9.6-2.74-14.46-3.52-39.36-6.27-77.52-16.81-114.37-32-68.5-28.23-127.06-70.32-175.27-126.58-33.95-39.62-60.51-83.83-80.4-132.06-26.85-65.16-40.48-133.02-41.49-203.42-.2-13.64-.08-27.34.96-40.93 1.55-20.36 3.12-40.79 6.31-60.93 6.77-42.62 18.56-83.91 35.4-123.75 29.53-69.85 72.03-130.35 129.73-179.75 62.93-53.88 135.83-87.32 216.69-103.98 12.29-2.53 24.69-4.5 37.03-6.74Zm-105.07-11.22c0 .24.02.48.02.72 1.42 0 2.89.23 4.26-.04 23.12-4.56 46.5-8.1 69.28-13.99 70.87-18.3 134.48-51.07 189.8-99.2 52.55-45.72 92.54-100.88 121.36-164.23 28.33-62.26 43.9-127.73 47.76-195.84 1.39-24.53.16-49.24-.65-73.84-.89-27.13-5.24-53.89-11.09-80.35-20.68-93.64-61.76-176.67-128.69-246.16-40.45-41.99-87.4-74.72-140.42-98.92-44.92-20.5-92.02-33.29-140.7-40.71-3.57-.54-7.19-.72-10.78-1.07 7.56 2.29 15.25 3.33 22.87 4.74 51.46 9.49 100.73 25.45 147.08 50.02 58.41 30.96 108.05 72.42 148.3 124.8 69.19 90.03 102.42 192.99 107.58 305.55 1.89 41.29-1.25 82.4-8.63 123.18-8.4 46.35-22.12 90.99-42.17 133.6-31.17 66.23-74.35 123.21-131.5 169.32-60.92 49.15-130.34 79.91-206.68 95.68-12.28 2.54-24.67 4.51-37.01 6.74Z"/>
<path d="M1347 0c6.95.54 13.89 1.13 20.85 1.62 63.74 4.42 124.98 18.95 183.22 45.49 41.35 18.84 79.09 43.32 113.16 73.38 42.66 37.65 76.99 81.92 103.89 131.99 25.21 46.93 42.91 96.64 52.63 148.94 4.61 24.76 7.41 49.96 9.37 75.09 1.63 20.87 1.84 41.98.91 62.91-2.02 45.46-9.55 90.11-22.6 133.78-18.74 62.7-47.54 120.25-88.38 171.47-54.93 68.89-124.22 117.84-207.07 147.74-36.1 13.02-73.22 21.81-111.22 26.61-20.27 2.56-40.72 4.06-61.13 5.06-54.84 2.71-108.85 10.01-161.21 27.27-57.04 18.8-109.12 46.63-155.21 85.33-81.01 68.03-131.82 154.82-158.85 256.3-7.45 27.96-12.22 56.41-15.27 85.2-2.89 27.23-3.77 54.54-2.52 81.8 3.71 81.12 22.86 158.35 60.64 230.55 25.78 49.28 58.77 93.08 99.88 130.71 61.58 56.36 133.63 92.43 214.58 111.39 29 6.79 58.36 11.23 88.1 13.15 8.09.52 16.16 1.46 24.24 2.2h-37c-6.62-.54-13.27-.8-19.85-1.65-25.01-3.25-50.27-5.33-74.94-10.3-82.78-16.67-156.94-51.6-220.79-107.47-36.4-31.85-66.89-68.59-91.94-109.91-45.38-74.85-69.15-156.48-75.6-243.38-2.37-31.91-1.65-63.84 1.59-95.75 3.09-30.47 8.27-60.52 16.27-90.05 21.68-80.03 58.92-151.65 115.48-212.78 44.3-47.88 96.55-84.45 156.42-110.2 60.9-26.2 124.77-39.03 190.75-42.68-25.1.76-50.21 1.72-75.26 3.49-32.56 2.3-64.52 8.4-95.98 17.04-91.86 25.25-169.9 72.84-232.41 145.02-42.13 48.65-72.78 103.97-93.52 164.81-17.1 50.15-26.58 101.7-29.17 154.65-1.43 29.37-.53 58.6 2.46 87.76 3.34 32.61 9.62 64.71 18.81 96.21 22.86 78.34 60.88 148.14 117.38 207.39 41.88 43.93 90.78 78 146.29 102.54 61.86 27.34 126.82 41.05 194.21 44.05 2.6.12 5.18.8 7.78 1.22h-43c-.97-.2-1.94-.54-2.91-.57-27.13-.8-53.97-4.17-80.66-8.99-45.73-8.26-89.62-22.2-131.33-42.67-56.32-27.65-105.13-65.1-146.14-112.71-38.45-44.62-67.52-94.73-88.2-149.76-18.11-48.19-29.16-97.96-33.29-149.31-2.2-27.28-2.36-54.52-.96-81.83 1.61-31.27 6.06-62.1 13.06-92.59 19.81-86.28 57.57-163.4 117.18-229.34 51.16-56.58 112.96-97.31 184.42-123.58 53.65-19.72 109.21-29.65 166.19-32.58-8.97-.3-17.99-.79-26.93-.2-17.41 1.14-34.8 2.75-52.18 4.4-27.84 2.64-55.23 7.88-82.23 15.11-72.38 19.39-137.28 52.84-193.4 102.85-57.94 51.63-99.8 114.3-128.18 186.24-19.76 50.11-31.53 102.16-35.77 155.76-1.79 22.68-2.18 45.6-1.17 68.32 1.11 25.02 3.27 50.14 7.24 74.86 8.76 54.49 25.84 106.48 51.15 155.65 35.71 69.37 84.71 127.31 148.86 172 80.79 56.28 171.49 82.46 268.98 87.67 3.44.18 6.85.84 10.27 1.27h-49c-1.31-.2-2.61-.48-3.92-.59-17.06-1.42-34.21-2.14-51.17-4.35-36.8-4.8-72.8-13.14-107.87-25.51-95.36-33.65-172.17-91.76-229.61-174.91-56.85-82.28-85.21-174.39-91.61-273.65-1.85-28.61-1.03-57.2 1.69-85.78 2.42-25.49 6.28-50.71 12.13-75.63 21.27-90.66 62.06-170.93 127-238.32 34.86-36.17 74.72-65.62 119.38-88.61 69.51-35.78 143.79-52.69 219.79-56.25-8.99 1.66-19.6-3.04-30.54.49-5.82 1.88-12.54.98-18.85 1.35-27.26 1.57-54.2 5.55-80.83 11.42-83.54 18.42-158.08 54.73-221.48 112.73-47.06 43.05-83.4 93.94-110.39 151.66-30.23 64.65-46.38 132.83-50.15 203.87-2.14 40.43-.07 80.78 6.5 120.88 9.37 57.22 26.6 111.81 53.56 163.17 49.64 94.56 122.15 165.44 219.45 210.26 63.31 29.16 130.17 43.5 199.62 46.55 2.78.12 5.54.8 8.3 1.22h-57c-6.78-.53-13.6-.83-20.34-1.65-22.08-2.69-44.3-4.61-66.16-8.56-48.68-8.8-95.11-24.65-139.05-47.57-49.41-25.77-92.72-59.41-129.83-100.91-31.38-35.09-56.86-74.14-76.97-116.73-32.4-68.62-48.88-141.08-51.78-216.67-1.54-40.32 1.54-80.39 8.62-120.19 8.5-47.72 22.82-93.55 43.59-137.3 21.2-44.66 48.38-85.37 82.06-121.7 42.46-45.8 92.21-81.39 149.11-106.99 63.05-28.37 129.46-42.15 197.44-45.33-2.22-.14-5.32-.32-8.41-.51 11.52-1.38 22.95-2.21 34.37-3.14 27.04-2.2 53.71-6.71 80.06-13.11 78.92-19.17 149.25-54.76 209.53-109.64 48.62-44.26 85.7-96.85 112.96-156.44 29.45-64.39 44.82-132.28 48.25-202.83 1.47-30.27.66-60.61-2.9-90.77-3.63-30.71-9.37-61.04-17.93-90.79-21.04-73.19-55.45-139.24-106.03-196.43-41.8-47.27-91.42-84.22-148.6-111.03-64.86-30.42-133.34-45.44-204.68-48.52-2.45-.11-4.87-.79-7.31-1.2h319Zm-235.42.26.03.6c18.11 2.32 36.32 4.04 54.3 7.08 55.12 9.3 107.71 26.31 156.98 53.03 50.94 27.63 95.18 63.53 132.54 107.82 27.84 33 50.69 69.22 68.99 108.34 31.21 66.7 47.69 137.02 50.61 210.39.98 24.56-.14 49.29-1.91 73.83-1.48 20.48-4.39 40.97-8.27 61.15-9.73 50.71-26.55 99.08-50.58 144.88-28.81 54.9-66.4 102.85-113.83 142.86-49.92 42.11-106.56 71.88-169.04 90.62-39.13 11.73-79.15 18.71-119.85 21.98 6.32-.17 12.62-.65 18.92-1.03 29.92-1.81 59.44-6.32 88.61-13.14 96-22.45 178.43-68.56 244.96-141.79 45.03-49.56 77.66-106.6 99.66-169.76 17.64-50.67 27.52-102.81 30.22-156.44 1.66-33.03.5-65.91-3.43-98.66-4.23-35.2-11.81-69.73-22.85-103.46-26.51-80.93-69.24-151.64-131.84-209.92-47.99-44.67-103.31-77.02-165.13-98.46-33.21-11.52-67.23-19.71-102.13-23.96-18.95-2.31-37.97-3.99-56.95-5.96Zm98 1021.84c7.43-.78 14.86-1.57 22.29-2.33 32.65-3.34 64.72-9.69 96.16-19.08 99.19-29.63 180.96-84.83 242.8-168.07 68.87-92.69 100.18-198.17 102.69-312.77.87-39.67-3.07-79.03-10.76-118.01-10.83-54.9-29.37-106.97-56.56-155.93-27.19-48.96-61.71-92.02-104.15-128.6-45.94-39.6-97.94-68.62-155.32-88.13-29-9.86-58.68-16.98-88.91-21.67-16.06-2.49-32.28-3.96-40.96-5 17.9 3.2 43.39 6.65 68.35 12.41 84.96 19.61 159.86 58.4 222.96 119.17 43.09 41.5 76.77 89.67 101.95 143.78 26.82 57.65 42.73 118.25 48.36 181.61 2.73 30.74 3.26 61.42 1.05 92.24-2.15 30.06-6.39 59.74-13.24 89.05-18.81 80.36-53.34 152.98-107.03 216.06-48.84 57.39-108.41 99.97-178.14 128.39-48.69 19.85-99.41 31.28-151.55 36.88ZM1357.46 10.4c-.08.41-.16.81-.25 1.22.79.27 1.56.62 2.36.79 44.36 9.18 86.7 24.04 126.94 44.9 68.04 35.27 123.76 84.59 167.17 147.6 59.4 86.22 88.03 182.61 92.42 286.58 1.71 40.48-1.48 80.73-8.58 120.7-8.48 47.73-22.74 93.59-43.57 137.31-29.91 62.79-70.85 117.22-124.37 161.98-50 41.82-106.55 71.29-168.91 89.76-14.39 4.26-29.03 7.67-43.48 11.45.71-.04 1.56.03 2.35-.16 15.96-3.96 32.08-7.36 47.82-12.04 89.64-26.64 165.3-75.06 225.67-146.7 40.24-47.75 69.61-101.72 89.68-160.79 13.13-38.65 21.93-78.27 26.09-118.91 2.68-26.18 4.06-52.36 3.15-78.71-.88-25.31-3.11-50.42-7.17-75.4-9.62-59.25-28.14-115.51-56.66-168.38-30.42-56.4-70.28-105.02-120.39-145.09-46.3-37.02-97.97-63.9-154.6-81.17-18.37-5.6-37.12-9.99-55.69-14.93Z" class="waves"/>
<path d="M701 2048c-6.95-.54-13.89-1.14-20.85-1.62-60.33-4.17-118.51-17.46-174.11-41.44-44.84-19.34-85.64-45.12-122.24-77.45-42.9-37.89-77.38-82.42-104.32-132.87-25.81-48.34-43.62-99.54-53.24-153.4-4.14-23.17-6.54-46.73-8.39-70.22-1.46-18.56-1.66-37.3-1.03-55.92 2.06-60.39 13.41-119.04 34.69-175.68 19.06-50.71 45.14-97.43 79.31-139.56 39.66-48.91 87.37-88 143.05-117.38 49.89-26.33 102.97-43.14 158.61-51.42 24.79-3.69 49.9-5.73 74.94-7.06 54.83-2.93 108.84-10.09 161.2-27.34 56.88-18.74 108.84-46.47 154.82-85.01 81.07-67.95 131.97-154.72 159.11-256.15 7.52-28.1 12.3-56.72 15.36-85.69 2.83-26.74 3.7-53.54 2.58-80.31-3.05-72.68-18.78-142.49-49.23-208.77-18.8-40.93-42.55-78.75-71.77-113.04-37.91-44.49-82.72-80.44-134.38-107.89-46.49-24.7-95.84-41.06-147.56-50.11-19.92-3.49-40.18-5.08-60.3-7.4-8.06-.93-16.15-1.53-24.23-2.28h37c1.14.2 2.27.48 3.41.6 22.8 2.34 45.73 3.78 68.37 7.16 53.49 7.99 104.36 24.49 152.46 49.4 68.05 35.24 123.81 84.51 167.27 147.49 59.57 86.33 88.25 182.88 92.52 287.03.9 21.9-.59 43.93-1.71 65.87-1.55 30.26-6.8 60.04-14.07 89.41-20.95 84.55-59.07 160.09-118.47 224.37-46.52 50.35-101.77 88.07-165.16 113.87-58.34 23.75-119.26 35.55-182.02 38.81 21.13-.47 42.32-.53 63.33-2.46 23.95-2.19 47.95-4.95 71.56-9.42 47.96-9.08 93.66-25.13 136.85-48.15 53.9-28.72 100.24-66.66 139.02-113.79 42.54-51.7 72.67-110.03 92.14-173.94 15.85-52 23.89-105.26 24.04-159.62.05-16.46-.41-32.99-1.97-49.36-2.03-21.3-4.44-42.65-8.36-63.67-9.55-51.3-26.52-100.18-50.75-146.47-26.28-50.22-60.12-94.66-102.16-132.71-36.45-33-77.33-59.29-122.33-79.15C932.12 17.94 867.18 4.18 799.78 1.22c-2.6-.11-5.18-.8-7.78-1.22h43c1.14.2 2.26.47 3.41.59 22.79 2.34 45.69 3.87 68.35 7.14 48.82 7.06 95.55 21.54 139.98 42.96 79.39 38.27 142.77 94.81 190.13 169.05 51.46 80.67 77.31 169.56 82.17 264.66 2.22 43.45-.59 86.74-8.52 129.68-11.68 63.24-33 122.82-66.16 177.98-54.06 89.93-129.64 154.86-227.01 194.12-57.63 23.23-117.81 34.62-179.72 37.73 12.94-.18 25.88-.68 38.83-1.08 25.64-.79 51.04-3.72 76.3-8.09 54.16-9.37 105.65-26.49 154.01-52.76 56.26-30.56 103.91-71.27 143.25-121.74 30.83-39.55 54.7-82.99 72.53-129.83 18.56-48.76 29.83-99.22 33.84-151.15 1.75-22.68 1.39-45.56 1.31-68.34-.1-25.98-3.45-51.7-7.87-77.29-9.94-57.48-28.43-112.02-56.29-163.29-36.1-66.41-84.74-121.71-147.38-164.27-80.67-54.78-170.73-80.26-267.38-84.85C876.17 1.1 873.6.42 871 0h49c1.31.2 2.6.46 3.92.6 24.59 2.65 49.34 4.29 73.75 8.11 55.63 8.71 108.24 26.79 157.63 53.99 64.66 35.6 117.56 84.15 159 145.11 52.71 77.54 80.65 163.81 88.83 256.76 2.55 29.03 2.63 58.14.43 87.29-2.26 29.88-6.37 59.4-13.2 88.55-21.24 90.67-62.06 170.93-126.99 238.32-34.38 35.68-73.65 64.84-117.61 87.7-69.98 36.39-144.87 53.57-223.24 57.48 5.56.24 11.14.41 16.71.19 5.15-.2 10.27-.89 15.41-1.24 6.31-.43 12.62-.73 18.93-1.1 27.26-1.57 54.21-5.55 80.83-11.42 83.54-18.42 158.07-54.74 221.48-112.73 47.06-43.05 83.41-93.94 110.39-151.66 30.23-64.65 46.52-132.83 50.02-203.89 1.31-26.69-.25-53.58-1.66-80.32-1.61-30.59-7.41-60.64-15.03-90.29-19.26-74.91-52.5-142.84-102.46-202.14-44.24-52.5-97.72-93.05-160.23-121.58-63.41-28.95-130.18-43.45-199.62-46.51-2.78-.12-5.54-.8-8.3-1.22h57c1.3.21 2.6.48 3.91.61 20.33 1.99 40.74 3.37 60.97 6.07 41.85 5.59 82.26 16.79 121.32 32.88 81.32 33.48 148.05 85.64 199.48 156.93 63.61 88.19 93.93 187.74 98.44 295.62 1.69 40.31-1.53 80.39-8.61 120.19-8.49 47.72-22.82 93.55-43.59 137.29-21.21 44.66-48.38 85.37-82.06 121.69-42.46 45.8-92.2 81.39-149.1 106.99-63.05 28.37-129.46 42.15-197.62 45.33 2.41.13 5.51.31 8.6.48-1.55.94-3.04.99-4.51 1.13-22 2.08-44.16 3.12-65.96 6.46-54.75 8.37-107.07 24.74-156.32 50.47-63.39 33.11-116.19 78.52-158.52 136.11-36.86 50.14-62.89 105.55-79.73 165.35-11.66 41.42-18.34 83.71-20.12 126.66-.83 19.93-.57 40.02.9 59.91 1.74 23.65 4.15 47.38 8.34 70.7 9.55 53.16 26.89 103.84 52.33 151.62 48.99 92.02 119.78 161.42 214.34 205.98 64.49 30.39 132.73 45.2 203.72 48.32 2.61.11 5.2.8 7.8 1.22H701Zm235.47-1023.1c-6.63.45-13.29.64-19.88 1.4-20.12 2.3-40.37 3.93-60.3 7.42-44.72 7.82-87.78 21.26-128.86 40.83-58.88 28.05-109.61 66.77-152.01 116.29-35.04 40.93-62.14 86.7-82.32 136.67-22.02 54.54-34.63 111.25-38.49 169.8-1.48 22.37-1.33 44.97-.15 67.37 1.21 23.02 3.48 46.1 7.26 68.83 8.18 49.26 23.17 96.54 44.88 141.62 29.07 60.37 68.34 112.98 119.32 156.57 59.2 50.62 127.32 83.7 203.09 100.81 23.27 5.26 47.03 8.51 70.67 11.93 12.14 1.76 24.53 1.86 36.8 2.71-3.78-.86-7.56-1.39-11.37-1.68-28.7-2.25-56.96-7.2-84.87-14.14-75.26-18.72-142.68-52.7-200.88-104.18-49.05-43.39-86.87-95.25-114.89-154.41-31.38-66.25-47.97-136.2-51.51-209.17-2.11-43.45.62-86.74 8.53-129.67 10.82-58.7 30.15-114.29 59.35-166.35 27.72-49.43 62.97-92.79 106.29-129.41 37.28-31.51 78.65-56.34 123.85-74.83 53.08-21.71 108.4-33.51 165.49-38.38Zm-98.02 1021.62c0-.13-.02-.26-.03-.39-16.73-2.56-33.52-4.79-50.18-7.75-53.09-9.44-103.52-26.64-150.81-52.71-90.12-49.68-155.81-122.23-199.22-214.98-37.74-80.65-53.91-165.83-50.73-254.82.97-27.14 3.59-54.06 8.41-80.73 11.09-61.35 31.49-119.4 62.94-173.39 40.19-68.99 93.89-124.8 162.39-166.11 66.94-40.36 139.98-61.64 217.35-69.42-4.15.19-8.27.64-12.4.99-29.87 2.51-59.31 7.53-88.29 15.15-120.94 31.78-216.04 99.42-282.92 205.47-48.66 77.16-73.26 162.15-79.5 252.74-1.76 25.6-1.27 51.22.62 76.85 2.18 29.57 6.4 58.78 13.23 87.6 23.09 97.41 68.36 182.39 141.38 251.78 41.14 39.1 88.25 68.99 140.56 90.77 36.19 15.06 73.76 25.5 112.4 31.84 18.17 2.98 36.52 4.79 54.8 7.13Zm-147.44-10.04c-.93-.31-1.85-.73-2.8-.92-45.03-9.31-87.95-24.51-128.69-45.86-54.85-28.75-101.93-67.09-141.29-114.87-35.57-43.18-62.56-91.29-82.05-143.68-18.79-50.5-29.87-102.71-33.2-156.4-1.42-22.88-1.42-45.98-.07-68.86 1.44-24.48 3.98-49.05 8.22-73.19 9.69-55.19 27.91-107.61 54.55-157.05 27.96-51.89 63.88-97.4 108.65-135.73 52.78-45.19 113.08-76.4 179.89-95.14 12.09-3.39 24.33-6.21 36.5-9.3-6.73 1.06-13.4 2.4-20.01 3.97-79 18.72-149.7 53.55-210.39 107.99-42.12 37.78-76.05 81.91-102.46 131.84-37.09 70.14-56.46 145.23-61.38 224.16-1.88 30.11-1.07 60.26 2.02 90.28 3.41 33.1 9.58 65.71 18.79 97.73 21.97 76.41 58.54 144.8 112.63 203.33 49.08 53.11 107.81 92.17 175.4 117.87 27.69 10.53 56.1 18.54 85.69 23.85Z" class="waves"/>
<path d="M323 0c6.95.54 13.89 1.13 20.85 1.62 63.74 4.42 124.97 18.95 183.2 45.48 41.35 18.84 79.09 43.32 113.15 73.37 42.66 37.64 76.99 81.9 103.89 131.97 25.21 46.92 42.7 96.67 52.71 148.91 3.9 20.35 6.86 41.01 8.32 61.66 1.77 25.21 2.99 50.62 1.84 75.83-3.4 74.85-20.69 146.45-53.48 214.12-25.32 52.24-58.46 98.79-100.48 138.83-47.42 45.18-102.29 78.42-163.91 100.59-36.26 13.05-73.51 22.18-111.71 26.62-27.56 3.2-55.36 4.42-83.06 6.36-67.23 4.7-132.11 18.91-193.45 47.56-34.56 16.14-66.74 36.06-96.3 60.18-1.39 1.13-3.04 1.94-4.57 2.9v-25c34.55-23.51 71.47-42.36 110.89-56.29 51.61-18.23 104.88-27.78 159.48-29.91-14.97.42-30-.44-44.9.61-24 1.69-48.11 3.49-71.84 7.3-51.66 8.29-101.04 24.14-147.68 48.14-1.86.96-3.96 1.44-5.95 2.15v-18c1.48-.74 2.93-1.58 4.46-2.2 57.78-23.38 117.98-35.38 180.11-38.74-8.3-.33-16.63-.73-24.91-.24-14.09.84-28.15 2.25-42.22 3.41-30.67 2.53-60.84 7.97-90.6 15.76-8.95 2.34-17.89 4.67-26.84 7.01v-12c33.4-8.04 67.35-11.9 98.26-13.48-3.47-.23-10.25-.92-17.05-1.04-3.09-.06-6.2 1.02-9.31 1.53-.98.16-2 .1-2.99.19-22.97 2.26-45.93 4.53-68.9 6.8v-9c21.53-1.75 43.14-2.86 64.58-5.37 41.27-4.84 81.27-15.17 120.03-30.15 68.41-26.45 127.53-66.59 176.78-120.99 33.66-37.18 60.52-78.87 81.37-124.48 30.11-65.85 45.64-135.16 48.71-207.27 1.4-32.77-.16-65.52-4.62-98.12-5.38-39.32-14.42-77.68-27.97-114.99C430.33 243 385.95 175.05 322.84 119.7c-43.43-38.09-92.49-66.63-146.69-86.38C119.27 12.59 60.44 2.4 0 1 1.5.67 3 .04 4.5.04c83-.04 166-.04 249-.04H323ZM87.38.66c0 .06.01.12.02.18 18.1 2.32 36.31 4.03 54.3 7.07 54.78 9.25 107.05 26.08 156.11 52.52 65.92 35.52 119.98 84.23 162.21 145.92 54.17 79.14 82.71 167.37 89.93 262.53 1.96 25.82.9 51.91.33 77.85-.61 27.8-5.04 55.2-10.8 82.39-19.03 89.86-57.33 170.11-119.13 238.6-45.8 50.76-100.56 88.94-163.51 115.42-54.23 22.81-110.94 35.05-169.45 39.72 6.47-.2 12.97-.3 19.38-1.13 24.85-3.22 49.9-5.5 74.46-10.25 62.06-12.02 119.86-35.21 172.57-70.34 74.53-49.67 129.4-116.11 166.97-197.16 31.04-66.96 46.67-137.59 49.74-211.09 1.38-33.13-.37-66.23-5.01-99.09-5.26-37.26-13.96-73.7-26.59-109.2-27.65-77.67-70.72-145.21-132.04-200.6-55.46-50.1-119.93-83.85-191.83-103.67-26.62-7.34-53.7-12.48-81.1-15.75C118.48 2.74 102.9 1.94 87.38.67Zm98.41.36-.44 1.32c9.73 1.16 19.5 2.07 29.18 3.52 38.87 5.86 76.84 15.22 113.59 29.33 72.1 27.7 133.73 70.46 184.48 128.7 30.59 35.11 55.25 74.12 74.7 116.42 29.02 63.12 44.97 129.55 48.71 198.76 1.32 24.37.52 48.94-.86 73.33-1.15 20.34-3.61 40.72-7.17 60.78-10.76 60.71-31.08 118.12-61.93 171.66-30.28 52.56-68.89 98.03-116.67 135.45-77.61 60.77-166.75 91.77-264.05 101.5 4.29-.21 8.56-.66 12.84-1.02 29.87-2.52 59.33-7.55 88.29-15.19 120.72-31.83 215.7-99.38 282.51-205.25 48.69-77.15 73.31-162.14 79.59-252.73 1.8-25.94 2.14-51.97-.87-77.83-2.92-25.05-5.31-50.3-10.46-74.93-18.4-87.95-55.72-166.85-115.6-234.5-36.03-40.71-78.07-73.8-125.91-99.53-43.8-23.57-90.27-39.84-139.05-49.12-23.45-4.46-47.23-7.16-70.86-10.66Zm148.07 1011.62s.82.08 1.6-.11c16.12-4 32.41-7.42 48.31-12.16 89.44-26.68 164.95-75.03 225.22-146.52 40.25-47.75 69.63-101.72 89.71-160.77 13.14-38.65 21.93-78.27 26.11-118.91 2.71-26.34 4.09-52.69 3.15-79.21-.89-25.14-3.12-50.08-7.14-74.9-9.6-59.26-28.12-115.52-56.63-168.39-31.57-58.54-73.22-108.63-125.86-149.44-50.8-39.38-107.65-66.43-169.64-82.89-11.72-3.11-23.59-5.65-35.39-8.46 15.48 4.51 31.17 8.19 46.56 12.89 92.2 28.12 169.6 78.71 229.75 154.29 73.81 92.74 108.16 199.85 112.56 317.34.58 15.45.34 31.03-.96 46.43-2.08 24.63-4.12 49.38-8.37 73.69-9.8 56.05-28.46 109.23-55.77 159.25-27.9 51.1-63.59 95.99-107.94 133.8-49.3 42.03-105.19 72.17-167.14 90.99-16.15 4.91-32.59 8.89-48.13 13.09ZM1725 2048c-6.95-.54-13.89-1.14-20.84-1.62-60.33-4.17-118.49-17.46-174.1-41.43-45-19.4-85.93-45.29-122.62-77.75-42.6-37.69-76.9-81.97-103.72-132.08-26.01-48.6-43.93-100.12-53.57-154.31-4.12-23.17-6.57-46.73-8.29-70.22-1.47-20.06-1.81-40.32-.91-60.41 2.63-58.62 13.8-115.64 34.52-170.67 19.09-50.69 45.13-97.42 79.28-139.56 39.76-49.05 87.57-88.27 143.45-117.63 48.86-25.67 100.68-42.49 155.2-50.63 21.83-3.26 43.87-5.62 65.9-6.88 56.38-3.22 112.28-8.84 166.49-26 57.58-18.23 110.31-45.43 157.26-83.59 1.52-1.24 3.3-2.15 4.96-3.22v25c-81.26 55.46-171.93 81.62-269.41 86.21 14.63-.43 29.33.42 43.9-.62 24.01-1.71 48.11-3.51 71.85-7.3 51.67-8.27 101.07-24.11 147.72-48.14 1.86-.96 3.96-1.44 5.95-2.15v18c-1.64.79-3.23 1.69-4.91 2.37-57.64 23.33-117.71 35.2-179.67 38.58 8.3.33 16.64.79 24.91.23 17.4-1.18 34.77-2.78 52.13-4.43 26.32-2.5 52.23-7.35 77.81-13.98 9.92-2.57 19.82-5.18 29.73-7.77v12c-33.4 8.04-67.35 11.9-100.57 13.6 33.14 1.49 66.86-3.04 100.57-7.6v9c-21.53 1.75-43.13 2.9-64.57 5.38-37.42 4.33-73.8 13.41-109.25 26.15-58.02 20.84-110.18 51.61-155.77 93.15-48.27 43.97-85.44 96.1-112.7 155.39-30.39 66.09-46.16 135.69-49.08 208.13-.94 23.22.56 46.58 1.72 69.84 1.33 26.93 5.94 53.45 12.03 79.7 20.2 87.08 58.54 164.81 119.2 231.04 38 41.49 82.3 74.64 132.6 99.66 68.16 33.9 140.71 50.37 216.55 53.35 2.77.11 5.52.8 8.28 1.21h-322Zm235.61-.46.03-.51c-16.11-1.96-32.29-3.47-48.31-5.96-36.18-5.64-71.5-14.72-105.77-27.76-60.08-22.86-113.4-56.4-159.43-101.3-41.57-40.54-74.21-87.44-98.96-139.92-31.27-66.29-47.79-136.26-51.22-209.25-2.04-43.29.69-86.41 8.59-129.17 10.85-58.69 30.13-114.31 59.43-166.32 35.97-63.86 83.76-117.08 144.55-158.28 75.84-51.4 160.43-76.69 251.08-83.92-6.4.21-12.81.67-19.21 1.06-29.92 1.81-59.44 6.31-88.6 13.16-90.67 21.3-169.59 63.73-234.63 130.96-42.05 43.46-74.18 93.47-97.73 149.06-26.61 62.82-40.24 128.55-42.9 196.57-1.38 35.15.74 70.21 6.03 105 5.9 38.87 15.64 76.78 29.66 113.56 27.8 72.94 69.52 136.55 127.5 189.08 50.08 45.38 107.85 77.52 172.13 98.1 30.61 9.8 61.9 16.66 93.74 20.73 17.94 2.29 36.02 3.45 54.04 5.12Zm-98.01-1.16v-.26c-16.84-2.57-33.74-4.78-50.5-7.77-53.08-9.47-103.46-26.76-150.81-52.74-64.26-35.26-117.06-83.24-158.36-143.65-61.43-89.85-89.72-190.17-91.99-298.28-.75-35.47 2.48-70.72 8.55-105.73 8.22-47.42 22.21-93 42.58-136.56 22.89-48.95 52.79-93.15 90.46-132.06 44.54-45.99 96.52-80.95 155.59-105.39 12.28-5.08 24.81-9.63 37.46-13.69 12.64-4.06 25.48-7.57 38.4-10.64 13.07-3.11 26.29-5.68 39.54-7.95 12.9-2.21 25.92-3.72 38.89-5.54-7.45.54-14.88 1.34-22.31 2.09-30.32 3.08-60.14 8.81-89.44 17.14-102 29.01-185.99 84.79-249.52 170.01-63.04 84.56-94.4 180.77-101.67 285.32-1.78 25.59-1.33 51.21.6 76.85 2.44 32.57 7.3 64.71 15.34 96.32 23.91 93.9 68.61 175.96 139.38 243.02 49.99 47.37 108.12 81.05 173.29 102.88 27.94 9.36 56.52 16.13 85.59 20.65 16.22 2.52 32.61 4.02 48.92 5.99ZM1714.48 1035.4c-.27 0-.96-.11-1.59.02-49.16 10.04-96.18 26.04-140.42 49.94-51.61 27.88-96.21 64.38-133.87 109.28-30.8 36.71-55.31 77.34-74.3 121.34-23.99 55.57-37.93 113.65-42.7 173.84-1.69 21.35-1.98 42.93-1.13 64.34.93 23.55 2.77 47.18 6.23 70.48 7.29 49.06 21.4 96.27 42.07 141.45 28.73 62.8 68.44 117.52 120.55 162.98 52.37 45.69 112.41 77.37 179.1 96.53 15.28 4.39 30.82 7.87 46.24 11.78-.75-1.27-1.73-1.68-2.75-1.9-44.19-9.18-86.35-24.02-126.44-44.8-68.19-35.37-124.02-84.82-167.45-148.03-59.19-86.13-87.73-182.39-92.1-286.18-1.71-40.48 1.46-80.73 8.59-120.69 8.57-48.05 22.97-94.19 44.03-138.19 29.88-62.44 70.69-116.54 123.93-161.07 50-41.82 106.55-71.29 168.92-89.75 14.36-4.25 28.97-7.65 43.11-11.35Z" class="waves"/>
<path d="M0 8V2c2.32-.07 4.69-.49 6.95-.15 25.93 3.86 52.12 6.51 77.69 12.04 85.9 18.55 161.75 56.94 225.88 117.6 45.72 43.24 80.89 93.93 106.94 151.08 30.68 67.31 45.87 138.22 48.66 211.92 1.1 28.99-.55 57.92-4.01 86.69-3.71 30.86-9.9 61.26-18.87 91.04-28.13 93.38-76.92 173.6-151.64 237.18-52.55 44.72-112.59 75.25-178.84 93.92-28.2 7.95-56.91 13.26-85.96 16.76-8.88 1.07-17.86 1.31-26.79 1.92v-6c47.81-7.89 93.91-21.35 137.79-42.1 60.52-28.62 112.48-68.41 155.59-119.64 39.33-46.74 68.38-99.32 88.63-156.87 17.83-50.65 27.78-102.88 30.38-156.4 1.06-21.91.74-44.01-.92-65.88-1.88-24.8-4.74-49.66-9.34-74.08-9.82-52.1-27.48-101.63-52.65-148.39-30.94-57.48-71.44-107.05-122.78-147.53C159.88 52.41 83.55 21.74 0 8ZM2048 2040v6c-2.49.06-5.02.45-7.45.12-18.92-2.49-37.9-4.65-56.72-7.8-43.5-7.27-85.27-20.44-125.12-39.26-96.64-45.65-168.63-116.92-217.53-211.61-38.18-73.94-56.64-153.04-59.34-235.93-1.29-39.51 1.92-78.79 9.05-117.66 10.91-59.48 30.71-115.83 60.69-168.47 31.3-54.96 71.71-102.06 121.89-140.64 49.57-38.11 104.94-64.5 165.13-81.01 27.28-7.48 55.04-12.52 83.1-15.89 8.71-1.04 17.53-1.26 26.3-1.86v6c-47.3 7.81-92.94 21.09-136.43 41.46-57.63 27.01-107.69 64.22-149.79 111.93-37.13 42.07-65.71 89.45-86.82 141.43-23.47 57.82-36.24 118.02-39.36 180.19-1.1 21.9-.73 44.02.91 65.89 1.85 24.63 4.66 49.33 9.23 73.58 10.69 56.61 30.38 110.15 59.03 160.25 30.18 52.78 68.68 98.51 116.5 136.19 66.85 52.68 143.17 83.37 226.73 97.09Z" class="waves"/>
<path d="M1020 2048c-2.6-.42-5.19-1.1-7.8-1.22-70.99-3.13-139.23-17.93-203.72-48.32-94.56-44.56-165.35-113.96-214.34-205.98-25.44-47.78-42.78-98.45-52.33-151.62-4.19-23.32-6.59-47.05-8.34-70.7-1.47-19.89-1.73-39.98-.9-59.91 1.79-42.94 8.46-85.24 20.12-126.66 16.84-59.8 42.88-115.21 79.73-165.35 42.33-57.58 95.13-103 158.52-136.11 49.25-25.72 101.57-42.09 156.32-50.47 21.81-3.34 43.96-4.38 65.96-6.46 1.48-.14 2.96-.2 4.51-1.13-3.09-.17-6.19-.35-8.6-.48 68.16-3.18 134.57-16.96 197.62-45.33 56.9-25.6 106.64-61.19 149.1-106.99 33.68-36.33 60.86-77.03 82.06-121.69 20.77-43.74 35.1-89.57 43.59-137.29 7.08-39.8 10.3-79.88 8.61-120.19-4.52-107.88-34.83-207.43-98.44-295.62-51.43-71.3-118.16-123.45-199.48-156.93-39.06-16.08-79.47-27.29-121.32-32.88-20.23-2.7-40.64-4.08-60.97-6.07-1.31-.13-2.61-.4-3.91-.61h22c2.43.41 4.86 1.1 7.31 1.2 71.33 3.08 139.81 18.1 204.68 48.52 57.17 26.82 106.79 63.76 148.6 111.03 50.59 57.2 84.99 123.24 106.03 196.43 8.55 29.75 14.3 60.07 17.93 90.79 3.56 30.16 4.37 60.5 2.9 90.77-3.43 70.55-18.8 138.44-48.25 202.83-27.26 59.6-64.34 112.18-112.96 156.44-60.28 54.88-130.61 90.46-209.53 109.64-26.35 6.4-53.02 10.91-80.06 13.11-11.42.93-22.85 1.76-34.37 3.14 3.09.19 6.19.38 8.41.51-67.97 3.18-134.38 16.96-197.44 45.33-56.9 25.6-106.65 61.19-149.11 106.99-33.68 36.33-60.86 77.03-82.06 121.7-20.77 43.75-35.09 89.57-43.59 137.3-7.09 39.8-10.17 79.87-8.62 120.19 2.9 75.59 19.38 148.05 51.78 216.67 20.11 42.59 45.58 81.64 76.97 116.73 37.12 41.5 80.43 75.13 129.83 100.91 43.95 22.92 90.37 38.77 139.05 47.57 21.86 3.95 44.08 5.88 66.16 8.56 6.75.82 13.56 1.11 20.34 1.65h-22Z"/>
<path d="M792 0c2.59.42 5.17 1.1 7.78 1.22 67.4 2.96 132.34 16.73 194.21 44.04 44.99 19.86 85.87 46.15 122.33 79.15 42.03 38.05 75.87 82.49 102.16 132.71 24.23 46.29 41.2 95.17 50.75 146.47 3.91 21.02 6.33 42.37 8.36 63.67 1.56 16.37 2.01 32.91 1.97 49.36-.15 54.36-8.2 107.61-24.04 159.62-19.48 63.91-49.6 122.25-92.14 173.94-38.78 47.13-85.12 85.06-139.02 113.79-43.18 23.01-88.88 39.06-136.85 48.15-23.61 4.47-47.61 7.23-71.56 9.42-21.02 1.93-42.21 1.98-63.33 2.46 62.76-3.26 123.68-15.06 182.02-38.81 63.39-25.81 118.65-63.52 165.16-113.87 59.39-64.29 97.52-139.82 118.47-224.37 7.28-29.37 12.53-59.15 14.07-89.41 1.12-21.93 2.61-43.97 1.71-65.87-4.26-104.14-32.95-200.69-92.52-287.03-43.46-62.98-99.22-112.26-167.27-147.49-48.09-24.91-98.97-41.41-152.46-49.4-22.64-3.38-45.57-4.82-68.37-7.16-1.15-.12-2.28-.4-3.41-.6h42ZM1256 2048c-2.59-.42-5.17-1.1-7.78-1.22-67.39-3-132.35-16.7-194.21-44.05-55.52-24.54-104.41-58.62-146.29-102.54-56.5-59.25-94.52-129.05-117.38-207.39-9.19-31.5-15.47-63.6-18.81-96.21-2.99-29.16-3.9-58.39-2.46-87.76 2.59-52.95 12.07-104.5 29.17-154.65 20.74-60.84 51.39-116.16 93.52-164.81 62.52-72.18 140.55-119.77 232.41-145.02 31.45-8.65 63.42-14.75 95.98-17.04 25.05-1.77 50.15-2.73 75.26-3.49-65.98 3.66-129.85 16.49-190.75 42.68-59.87 25.75-112.12 62.32-156.42 110.2-56.56 61.14-93.8 132.75-115.48 212.78-8 29.53-13.18 59.58-16.27 90.05-3.24 31.9-3.96 63.83-1.59 95.75 6.45 86.9 30.21 168.53 75.6 243.38 25.05 41.31 55.54 78.06 91.94 109.91 63.85 55.87 138.01 90.8 220.79 107.47 24.67 4.97 49.93 7.05 74.94 10.3 6.58.85 13.23 1.12 19.85 1.65h-42Z"/>
<path d="M2048 1038v13c-.81.17-1.65.27-2.44.53-60.45 19.97-115.22 50.1-163.13 92.17-51.95 45.61-91.6 100.35-120.17 163.24-32.52 71.59-47.79 146.93-48.81 225.3-.41 31.15 2.11 62.17 7.03 92.93 8.53 53.33 24.01 104.54 47.93 153.05 45.65 92.6 113.2 164.12 205.02 212.07 23.9 12.48 48.67 23 74.57 30.7v13c-.5-.02-1.01.04-1.48-.07-48.46-11-94.49-28.31-137.6-53.15-44.27-25.51-83.19-57.57-116.75-96.07-29.61-33.96-53.81-71.49-73.06-112.23-30.8-65.18-47.41-133.97-51.13-205.78-1.2-23.21-.58-46.63.91-69.84 1.36-21.32 4.2-42.64 7.8-63.72 10.17-59.35 30.38-115.25 60.12-167.63 26.64-46.92 60.14-88.27 100.93-123.65 33.69-29.22 70.93-52.92 111.54-71.3 31.74-14.36 64.56-25.5 98.72-32.57ZM0 27V14c49.99 10.65 97.11 28.77 141.23 54.54 67.38 39.35 121.04 92.75 161.78 159.19 42.92 69.99 67.05 146.33 74.99 227.75 2.38 24.44 2.12 49.17 2.3 73.77.22 29.84-3.68 59.38-9.23 88.64-11.14 58.77-31.02 114.4-60.86 166.36-26.02 45.32-58.44 85.45-97.66 119.97-34.48 30.35-72.82 54.86-114.71 73.67C66.37 992.01 33.85 1003.07 0 1010v-13c1.6-.45 3.22-.82 4.79-1.35 61.17-20.54 116.28-51.56 164.48-94.7 41.52-37.17 75.19-80.44 101.47-129.46 41.87-78.13 61.72-161.97 63.75-250.25.68-29.64-1.55-59.16-5.63-88.55-4.84-34.81-12.83-68.85-24.19-102.1-21-61.46-52.03-117.28-94.69-166.37-39.57-45.53-86.31-81.97-140.3-109C47.19 43.97 24.11 34.22 0 27Z" class="waves"/>
<path d="M2048 1084v28c-1.18.55-2.47.94-3.52 1.68-30.81 21.65-58.47 46.81-83.08 75.29-31.68 36.66-56.97 77.38-76.67 121.61-29.73 66.75-44.48 136.88-46.91 209.7-.91 27.14.62 54.21 3.71 81.21 4.07 35.59 11.3 70.49 22.21 104.59 30.42 95 82.62 175.31 161.17 237.68 7.36 5.84 15.38 10.85 23.09 16.24v28c-31.91-16.94-61.39-37.34-88.47-61.27-45.12-39.86-80.87-86.92-108.2-140.42-28.56-55.91-46.35-115.15-54.14-177.44-4.08-32.59-5.78-65.23-4.12-98.09 1.36-26.93 4.26-53.62 9.19-80.11 10.01-53.84 27.56-105.07 53.48-153.31 44.87-83.51 108.54-148.43 192.27-193.36ZM0 964v-28c1.31-.66 2.72-1.17 3.91-2 27.14-18.97 51.77-40.83 74.07-65.26 35.66-39.05 63.79-83.04 85.28-131.32 29.79-66.92 44.83-137.2 46.74-210.21.62-23.56-1.12-47.22-2.73-70.78-2.18-31.9-8.42-63.18-16.99-93.96-28.81-103.49-82.61-190.87-167.21-258.23C15.74 98.4 7.71 93.4 0 88V60c71.06 37.85 128.23 90.86 171.72 158.49 54.96 85.47 80.84 179.78 83.81 280.77.99 33.47-1.62 66.78-6.69 99.92-7.53 49.25-21.2 96.68-41.97 141.93C162.39 838.03 94.33 913.26 0 964ZM1177 2048c-3.42-.43-6.83-1.09-10.27-1.27-97.49-5.21-188.19-31.39-268.98-87.67-64.15-44.69-113.15-102.63-148.86-172-25.31-49.17-42.39-101.16-51.15-155.65-3.97-24.71-6.13-49.84-7.24-74.86-1.01-22.72-.63-45.65 1.17-68.32 4.24-53.6 16.01-105.65 35.77-155.76 28.37-71.94 70.24-134.61 128.18-186.24 56.12-50.01 121.03-83.46 193.4-102.85 27-7.23 54.39-12.47 82.23-15.11 17.38-1.65 34.76-3.26 52.18-4.4 8.95-.59 17.96-.1 26.93.2-56.98 2.93-112.54 12.86-166.19 32.58-71.46 26.27-133.27 67-184.42 123.58-59.61 65.94-97.37 143.06-117.18 229.34-7 30.49-11.45 61.32-13.06 92.59-1.4 27.31-1.24 54.55.96 81.83 4.14 51.35 15.18 101.13 33.29 149.31 20.69 55.03 49.76 105.14 88.2 149.76 41.01 47.6 89.82 85.06 146.14 112.71 41.71 20.48 85.6 34.41 131.33 42.67 26.69 4.82 53.52 8.19 80.66 8.99.97.03 1.94.37 2.91.57h-36ZM871 0c2.59.42 5.17 1.1 7.78 1.22 96.65 4.59 186.72 30.07 267.37 84.87 62.64 42.56 111.28 97.86 147.38 164.27 27.87 51.27 46.36 105.8 56.29 163.29 4.42 25.59 7.78 51.3 7.87 77.29.08 22.78.44 45.66-1.31 68.34-4.02 51.93-15.28 102.39-33.84 151.15-17.82 46.83-41.7 90.27-72.53 129.83-39.34 50.47-86.99 91.18-143.25 121.74-48.36 26.27-99.85 43.39-154.01 52.76-25.26 4.37-50.66 7.3-76.3 8.09-12.94.4-25.89.91-38.83 1.08 61.91-3.11 122.09-14.49 179.72-37.73 97.37-39.26 172.95-104.19 227.01-194.12 33.16-55.17 54.48-114.75 66.16-177.98 7.93-42.94 10.74-86.23 8.52-129.68-4.85-95.1-30.71-183.99-82.17-264.66-47.36-74.25-110.74-130.78-190.13-169.05-44.44-21.42-91.16-35.89-139.98-42.96C884.1 4.47 861.19 2.94 838.4.61c-1.14-.12-2.27-.39-3.41-.59h36Z"/>
<path d="M0 164v-51c1.69 1.35 3.43 2.65 5.06 4.06 52.55 45.47 92.8 100.13 121.89 163.13 30.65 66.36 46.47 136.32 49.53 209.14 1.76 41.97-1.16 83.74-8.82 125.13-7.8 42.14-20.03 82.91-37.38 122.1-22.02 49.72-50.91 95.03-88.3 134.59C28.76 885.16 14.04 897.76 0 911v-51c2.16-2.3 4.44-4.48 6.45-6.9 27.99-33.77 51-70.64 69.26-110.54 26.84-58.64 42.24-120.24 47.34-184.36 1.71-21.52 1.28-43.23 1.31-64.85.03-27.51-3.35-54.76-8.24-81.77-12.86-71.03-37.72-137.49-78.01-197.64C26.46 196.58 12.76 180.61 0 164ZM2048 1884v51c-16.04-15.48-32.91-30.19-47.96-46.58-32.18-35.06-57.51-74.83-77.71-117.92-31.39-66.98-47.63-137.67-50.8-211.33-1.8-41.79 1.13-83.39 8.65-124.64 8.45-46.33 22.32-90.9 42.27-133.54 21.39-45.71 48.83-87.47 83.51-124.18 13.23-14.01 27.98-26.58 42.03-39.8v51c-2.15 2.29-4.44 4.48-6.44 6.9-28.44 34.25-51.69 71.72-70.06 112.28-26.31 58.07-41.49 119.02-46.53 182.42-1.72 21.67-1.32 43.54-1.3 65.31.03 29.33 3.75 58.35 9.24 87.09 13.91 72.74 40.57 140.34 83.11 201.23 9.88 14.14 21.27 27.21 31.97 40.78Z"/>
<path d="M2048 2021c-25.9-7.69-50.66-18.22-74.57-30.7-91.83-47.95-159.37-119.48-205.02-212.07-23.92-48.51-39.4-99.73-47.93-153.05-4.92-30.76-7.44-61.79-7.03-92.93 1.03-78.36 16.3-153.7 48.81-225.3 28.57-62.89 68.22-117.64 120.17-163.24 47.91-42.07 102.68-72.2 163.13-92.17.78-.26 1.62-.36 2.44-.53v14c-12.65 5.88-25.57 11.24-37.91 17.72-85.29 44.77-149.58 110.66-194.82 195.33-38.7 72.45-58.4 150.2-62.34 231.97-1.81 37.61.06 75.19 5.93 112.46 5.94 37.68 15.12 74.54 28.74 110.22 41.5 108.72 110.66 194.14 212.79 251.47 15.32 8.6 31.71 15.27 47.6 22.84v14ZM0 27c24.11 7.22 47.19 16.97 69.67 28.22 53.99 27.02 100.74 63.47 140.3 109 42.66 49.09 73.69 104.91 94.69 166.37 11.36 33.25 19.35 67.29 24.19 102.1 4.09 29.39 6.31 58.91 5.63 88.55-2.02 88.27-21.87 172.12-63.75 250.25-26.27 49.02-59.95 92.3-101.47 129.46-48.2 43.15-103.3 74.16-164.48 94.7-1.57.53-3.19.9-4.79 1.35v-14c13.24-6.18 26.74-11.88 39.69-18.63 48.49-25.3 90.75-58.72 127.14-99.48 33.38-37.4 60.03-79.19 80.63-124.91 29.17-64.73 44.52-132.74 47.64-203.48 1.36-30.76.27-61.53-3.55-92.19-3.54-28.41-8.77-56.43-16.46-83.97-19.92-71.31-52.73-135.96-100.69-192.61-34.99-41.33-76-75.57-123.33-101.9C34.55 56.64 17.05 49.22 0 41V27Z"/>
<path d="M2048 2007c-15.9-7.56-32.29-14.24-47.6-22.84-102.13-57.33-171.29-142.75-212.79-251.47-13.62-35.68-22.8-72.54-28.74-110.22-5.87-37.27-7.75-74.85-5.93-112.46 3.94-81.77 23.64-159.52 62.34-231.97 45.23-84.68 109.53-150.56 194.82-195.33 12.34-6.48 25.26-11.84 37.91-17.72v19c-83.72 44.93-147.4 109.85-192.27 193.36-25.92 48.24-43.47 99.47-53.48 153.31-4.93 26.5-7.84 53.18-9.19 80.11-1.65 32.86.04 65.5 4.12 98.09 7.79 62.28 25.58 121.53 54.14 177.44 27.33 53.5 63.08 100.56 108.2 140.42 27.09 23.93 56.57 44.33 88.47 61.27v19ZM0 41c17.05 8.22 34.55 15.64 51.06 24.83 47.32 26.33 88.34 60.57 123.33 101.9 47.96 56.65 80.77 121.29 100.69 192.61 7.69 27.54 12.92 55.57 16.46 83.97 3.82 30.67 4.91 61.44 3.55 92.19-3.12 70.74-18.47 138.74-47.64 203.48-20.6 45.71-47.25 87.51-80.63 124.91-36.39 40.76-78.65 74.18-127.14 99.48C26.74 971.12 13.24 976.82 0 983v-19c94.33-50.74 162.39-125.97 206.88-222.89 20.77-45.24 34.44-92.68 41.97-141.93 5.07-33.14 7.67-66.45 6.69-99.92-2.98-100.99-28.86-195.31-83.81-280.77C128.23 150.86 71.06 97.85 0 60V41Z" class="waves"/>
<path d="M1099 2048c-2.77-.42-5.52-1.1-8.3-1.22-69.45-3.05-136.3-17.39-199.62-46.55-97.3-44.81-169.81-115.7-219.45-210.26-26.96-51.36-44.19-105.95-53.56-163.17-6.57-40.1-8.65-80.46-6.5-120.88 3.77-71.04 19.92-139.22 50.15-203.87 26.99-57.72 63.33-108.61 110.39-151.66 63.4-58 137.94-94.3 221.48-112.73 26.62-5.87 53.57-9.85 80.83-11.42 6.31-.36 13.03.53 18.85-1.35 10.94-3.53 21.55 1.17 30.54-.49-75.99 3.56-150.28 20.47-219.79 56.25-44.66 22.99-84.53 52.44-119.38 88.61-64.93 67.38-105.73 147.66-127 238.32-5.85 24.92-9.71 50.14-12.13 75.63-2.71 28.58-3.53 57.17-1.69 85.78 6.4 99.26 34.76 191.37 91.61 273.65 57.44 83.15 134.25 141.26 229.61 174.91 35.07 12.37 71.08 20.71 107.87 25.51 16.96 2.21 34.11 2.93 51.17 4.35 1.31.11 2.61.39 3.92.59h-29ZM949 0c2.77.42 5.52 1.1 8.3 1.22 69.44 3.06 136.21 17.56 199.62 46.51 62.51 28.54 115.99 69.08 160.23 121.58 49.96 59.3 83.2 127.22 102.46 202.14 7.62 29.65 13.43 59.7 15.03 90.29 1.41 26.74 2.97 53.63 1.66 80.32-3.5 71.05-19.79 139.24-50.02 203.89-26.98 57.72-63.33 108.61-110.39 151.66-63.4 57.99-137.94 94.31-221.48 112.73-26.63 5.87-53.57 9.85-80.83 11.42-6.31.36-12.63.66-18.93 1.1-5.14.35-10.27 1.04-15.41 1.24-5.57.22-11.16.05-16.71-.19 78.37-3.91 153.26-21.09 223.24-57.48 43.96-22.86 83.23-52.01 117.61-87.7 64.93-67.39 105.75-147.66 126.99-238.32 6.83-29.14 10.94-58.67 13.2-88.55 2.2-29.15 2.12-58.26-.43-87.29-8.17-92.95-36.11-179.22-88.83-256.76-41.44-60.96-94.34-109.51-159-145.11-49.39-27.2-102-45.27-157.63-53.99-24.41-3.82-49.16-5.47-73.75-8.11-1.31-.14-2.61-.4-3.92-.6h29ZM0 1010c33.85-6.93 66.37-17.99 97.83-32.11 41.9-18.81 80.23-43.33 114.71-73.67 39.22-34.52 71.64-74.65 97.66-119.97 29.84-51.97 49.72-107.59 60.86-166.36 5.55-29.26 9.45-58.79 9.23-88.64-.18-24.6.09-49.34-2.3-73.77-7.94-81.41-32.07-157.75-74.99-227.75-40.74-66.44-94.4-119.83-161.78-159.19C97.11 42.77 49.99 24.65 0 14V8c83.55 13.74 159.88 44.41 226.71 97.11 51.34 40.48 91.84 90.05 122.78 147.53 25.17 46.76 42.83 96.29 52.65 148.39 4.6 24.42 7.46 49.28 9.34 74.08 1.66 21.87 1.98 43.98.92 65.88-2.6 53.52-12.56 105.75-30.38 156.4-20.26 57.56-49.3 110.14-88.63 156.87-43.11 51.22-95.07 91.02-155.59 119.64C93.91 994.65 47.81 1008.11 0 1016v-6ZM2048 1038c-34.16 7.07-66.98 18.21-98.72 32.57-40.61 18.37-77.85 42.07-111.54 71.3-40.79 35.38-74.29 76.73-100.93 123.65-29.75 52.38-49.96 108.28-60.12 167.63-3.61 21.08-6.44 42.39-7.8 63.72-1.48 23.21-2.11 46.63-.91 69.84 3.72 71.81 20.33 140.6 51.13 205.78 19.25 40.74 43.45 78.26 73.06 112.23 33.57 38.5 72.48 70.55 116.75 96.07 43.11 24.84 89.14 42.15 137.6 53.15.48.11.99.05 1.48.07v6c-83.56-13.71-159.87-44.41-226.73-97.09-47.82-37.68-86.32-83.41-116.5-136.19-28.64-50.1-48.34-103.63-59.03-160.25-4.58-24.25-7.38-48.95-9.23-73.58-1.64-21.87-2.01-43.98-.91-65.89 3.13-62.16 15.89-122.36 39.36-180.19 21.1-51.98 49.69-99.36 86.82-141.43 42.11-47.71 92.16-84.92 149.79-111.93 43.48-20.38 89.12-33.65 136.43-41.46v6Z"/>
<path d="M2048 1743v107c-1.17-1.39-2.45-2.71-3.49-4.19-22.06-31.46-40.15-65.04-54.6-100.65-23.4-57.67-36.38-117.7-39.21-179.71-1.2-26.35.02-52.92 1.8-79.28 1.38-20.47 4.45-40.93 8.33-61.1 9.81-51.03 26.4-99.88 51.44-145.5 10.85-19.77 23.76-38.42 35.74-57.57v108c-.8 1.37-1.8 2.67-2.37 4.13-22.11 56.34-33.89 114.93-36.66 175.23-1.45 31.58-.48 63.19 3.47 94.7 4.39 35.04 11.41 69.46 22.31 103.04 3.94 12.13 8.81 23.95 13.26 35.91ZM0 305V198c1.17 1.39 2.44 2.71 3.48 4.2 33.2 47.26 57.13 98.9 73.1 154.32 11.86 41.19 18.86 83.26 20.8 126.01 1 22.07.64 44.32-.89 66.36-1.59 22.97-4.23 46-8.31 68.65-9.47 52.64-26.34 102.98-51.97 150.01-10.95 20.1-24.07 39-36.21 58.45V718c.87-1.54 1.93-2.99 2.57-4.62 21.94-56.21 33.64-114.62 36.49-174.75 1.43-30.26.68-60.59-2.9-90.75-4.32-36.36-11.47-72.14-22.89-106.97C9.29 328.79 4.45 316.96 0 305Z"/>
<path d="M1384 2048c-7.12-.54-14.23-1.1-21.35-1.62-90.59-6.6-174.92-32.23-250.53-83.49-66.16-44.85-116.65-103.68-153.31-174.55-23.77-45.95-40.35-94.44-49.63-145.25-4.02-22.01-6.87-44.36-8.28-66.68-1.55-24.7-2.13-49.61-.85-74.32 2.72-52.68 13.08-104.04 30.78-153.82 18.43-51.83 44.07-99.78 78.21-142.98 50.86-64.33 114.35-111.94 190.4-142.73 40.57-16.43 82.53-27.83 125.99-32.85 26.06-3.01 52.34-4.1 78.53-5.96 2.61-.19 5.26.21 7.89.95-7.71.52-15.43.99-23.14 1.57-101.99 7.6-195.21 39.02-276.29 102.69-52.91 41.55-94.14 92.86-125.35 152.39-23.95 45.68-40.6 93.91-50.39 144.43-3.91 20.17-6.78 40.66-8.19 61.15-1.75 25.38-2.81 50.94-1.83 76.33 1.84 47.83 10.21 94.73 24.56 140.5 18.61 59.35 46.38 113.91 84.91 162.84 38.84 49.32 85.82 89.06 140.94 119.12 48.59 26.51 100.39 43.7 154.88 53.04 25.08 4.3 50.28 7.37 75.74 8.07 2.11.06 4.2.76 6.3 1.16h-30ZM664 0c7.12.54 14.24 1.1 21.36 1.62 90.6 6.59 174.93 32.24 250.55 83.5 66.16 44.84 116.65 103.69 153.3 174.55 23.76 45.94 40.34 94.43 49.62 145.24 4.02 22.01 6.86 44.36 8.29 66.68 1.56 24.37 2.15 48.95.88 73.33-2.94 56.73-14.45 111.86-34.64 165.08-18.73 49.38-44.12 94.97-77.23 136.19-40.73 50.7-89.9 91.12-147.69 120.96-50.08 25.87-103.18 42.5-158.97 50.2-20.55 2.84-41.29 4.39-62 5.92-10.38.76-20.87.13-31.33.03 7.72-.52 15.44-.99 23.16-1.57 104.33-7.79 199.31-40.45 281.37-106.75 50.17-40.53 89.53-90.03 119.61-147.02 25.1-47.55 42.42-97.85 51.93-150.67 4.11-22.83 6.66-46.03 8.29-69.18 1.5-21.39 1.9-42.99.89-64.4-2.31-49.17-10.91-97.34-26.1-144.25-21.39-66.07-54.03-125.86-100.05-178.03-45.18-51.22-99.31-90.27-161.98-117.54-38.75-16.86-78.99-28.75-120.65-35.21-23.91-3.71-48.2-5.04-72.31-7.48-2.12-.22-4.2-.78-6.3-1.18h30ZM2048 1137c-14.06 13.22-28.8 25.8-42.03 39.8-34.68 36.71-62.12 78.48-83.51 124.18-19.96 42.64-33.82 87.21-42.27 133.54-7.53 41.26-10.45 82.85-8.65 124.64 3.17 73.67 19.4 144.35 50.8 211.33 20.2 43.09 45.53 82.87 77.71 117.92 15.05 16.39 31.92 31.11 47.96 46.58v25c-7.71-5.4-15.73-10.4-23.09-16.24-78.55-62.36-130.75-142.67-161.17-237.68-10.92-34.1-18.15-69-22.21-104.59-3.09-27-4.62-54.08-3.71-81.21 2.44-72.82 17.19-142.95 46.91-209.7 19.7-44.24 44.99-84.95 76.67-121.61 24.61-28.48 52.27-53.64 83.08-75.29 1.05-.74 2.34-1.13 3.52-1.68v25ZM0 911c14.04-13.24 28.76-25.84 41.99-39.84 37.38-39.57 66.28-84.87 88.3-134.59 17.36-39.19 29.58-79.96 37.38-122.1 7.66-41.39 10.58-83.16 8.82-125.13-3.06-72.82-18.88-142.78-49.53-209.14-29.1-63-69.35-117.66-121.9-163.14-1.63-1.41-3.37-2.71-5.06-4.06V88c7.71 5.4 15.74 10.4 23.09 16.25 84.6 67.36 138.4 154.74 167.21 258.23 8.57 30.78 14.81 62.06 16.99 93.96 1.61 23.55 3.34 47.22 2.73 70.78-1.91 73.01-16.96 143.29-46.74 210.21-21.49 48.29-49.63 92.27-85.28 131.32-22.3 24.43-46.93 46.29-74.07 65.26-1.19.83-2.6 1.34-3.91 2v-25Z" class="waves"/>
<path d="M2048 1026c-8.77.6-17.58.82-26.3 1.86-28.06 3.36-55.82 8.4-83.1 15.89-60.19 16.5-115.56 42.9-165.13 81.01-50.18 38.57-90.59 85.68-121.89 140.64-29.97 52.64-49.78 108.99-60.69 168.47-7.13 38.88-10.34 78.16-9.05 117.66 2.71 82.89 21.16 161.99 59.34 235.93 48.9 94.69 120.89 165.96 217.53 211.61 39.85 18.82 81.62 31.99 125.12 39.26 18.81 3.14 37.8 5.31 56.72 7.8 2.44.32 4.97-.07 7.45-.12-.33.67-.67 1.33-1 2-2.76-.42-5.51-1.1-8.28-1.21-75.84-2.98-148.39-19.44-216.55-53.35-50.3-25.02-94.6-58.17-132.6-99.66-60.66-66.23-99-143.96-119.2-231.04-6.09-26.24-10.7-52.77-12.03-79.7-1.15-23.26-2.65-46.62-1.72-69.84 2.92-72.45 18.7-142.04 49.08-208.13 27.26-59.3 64.43-111.42 112.7-155.39 45.59-41.54 97.75-72.31 155.77-93.15 35.45-12.73 71.83-21.82 109.25-26.15 21.44-2.48 43.04-3.63 64.57-5.38v1ZM0 1022c8.93-.62 17.91-.85 26.79-1.92 29.05-3.5 57.77-8.82 85.96-16.76 66.25-18.67 126.29-49.2 178.84-93.92 74.72-63.59 123.52-143.8 151.64-237.18 8.97-29.78 15.16-60.19 18.87-91.04 3.46-28.78 5.11-57.71 4.01-86.69-2.79-73.7-17.98-144.6-48.66-211.92-26.05-57.15-61.22-107.84-106.94-151.08-64.12-60.67-139.97-99.06-225.87-117.6C59.07 8.36 32.87 5.71 6.95 1.85 4.69 1.51 2.32 1.93 0 2V1c60.44 1.4 119.27 11.59 176.15 32.32 54.2 19.75 103.26 48.29 146.69 86.38 63.11 55.35 107.49 123.3 136.05 201.93 13.55 37.31 22.59 75.67 27.97 114.99 4.46 32.6 6.01 65.34 4.62 98.12-3.07 72.11-18.61 141.42-48.71 207.27-20.86 45.61-47.71 87.3-81.37 124.48-49.26 54.4-108.37 94.55-176.78 120.99-38.76 14.98-78.76 25.31-120.03 30.15-21.44 2.51-43.05 3.63-64.58 5.37v-1Z"/>
<path d="M579 0c6.78.54 13.55 1.12 20.34 1.6 85.51 6.05 165.63 29.29 238.54 75.21 59.04 37.18 106.78 85.75 144.1 144.6 33.31 52.52 56.11 109.43 68.75 170.23 4.85 23.36 8.29 47.15 10.36 70.91 2.06 23.67 2.66 47.58 2.04 71.33-1.25 47.37-9.14 93.81-22.69 139.27-18.69 62.72-47.52 120.25-88.36 171.48-54.92 68.89-124.19 117.9-207.06 147.73-37.51 13.5-76.04 22.87-115.69 26.94-22.8 2.34-45.75 3.22-68.64 4.74-.8.05-1.62-.1-2.45-.69 7.25-.54 14.49-1.09 21.74-1.61 92.23-6.65 177.81-33.08 254.36-85.99 54.94-37.98 99.07-86.14 133.5-143.3 31.46-52.23 52.75-108.45 64.36-168.17 4.55-23.41 7.63-47.26 9.26-71.05 1.71-25.02 2.51-50.32.89-75.31-7.18-111.23-42.01-212.52-112.15-300.26-47.91-59.93-107.61-104.65-178.16-134.92-39.77-17.06-81.11-28.66-123.81-35.08-21.32-3.2-42.95-4.38-64.43-6.51-2.61-.26-5.19-.76-7.79-1.16h23ZM1469 2048c-6.78-.54-13.55-1.14-20.34-1.6-65.11-4.48-127.59-19.37-186.87-47.03-55.95-26.11-104.77-61.9-146.19-107.71-58.33-64.51-95.65-139.92-115.91-224.11-6.58-27.33-11.63-54.98-12.99-83.09-1.21-24.93-2.76-49.97-1.68-74.85 3.03-69.54 18.24-136.45 46.75-200.17 20.41-45.61 46.72-87.46 79.88-124.86 49.98-56.36 110.35-97.81 180.59-124.99 39.4-15.25 80.12-25.53 121.98-30.54 24.23-2.9 48.73-3.5 73.12-5.11.8-.05 1.62.11 2.44.71-7.1.53-14.19 1.09-21.29 1.58-72.38 4.92-141.26 22.72-205.77 56.28-39.7 20.65-75.53 46.71-107.56 78.02-45.98 44.95-80.92 97.35-106.33 156.29-17.92 41.56-30.37 84.75-37.11 129.43-3.29 21.8-5.12 43.9-6.26 65.94-1 19.42-1.02 38.99.12 58.4 2.45 41.74 9.44 82.8 21.2 123.01 18.99 64.97 48.73 124.41 91.29 177.17 43.45 53.86 96.43 95.86 158.82 125.85 44.47 21.38 91.16 35.93 139.98 43.01 23.15 3.36 46.56 4.91 69.85 7.33 1.78.18 3.52.69 5.29 1.05h-23ZM2048 1222c-11.98 19.16-24.89 37.8-35.74 57.57-25.03 45.62-41.63 94.47-51.44 145.5-3.88 20.17-6.94 40.63-8.33 61.1-1.78 26.36-3.01 52.92-1.8 79.28 2.83 62.01 15.82 122.04 39.21 179.71 14.45 35.61 32.54 69.19 54.6 100.65 1.04 1.48 2.32 2.8 3.49 4.19v34c-10.7-13.57-22.09-26.64-31.97-40.78-42.55-60.89-69.2-128.49-83.11-201.23-5.5-28.74-9.21-57.77-9.24-87.09-.02-21.78-.42-43.64 1.3-65.31 5.04-63.4 20.22-124.35 46.53-182.42 18.37-40.55 41.62-78.02 70.06-112.28 2.01-2.42 4.29-4.6 6.44-6.9v34ZM0 826c12.14-19.45 25.26-38.35 36.21-58.45 25.63-47.03 42.5-97.38 51.97-150.01 4.08-22.66 6.72-45.68 8.31-68.65 1.52-22.04 1.88-44.29.89-66.36-1.93-42.75-8.93-84.82-20.8-126.01-15.96-55.43-39.9-107.07-73.1-154.32-1.04-1.48-2.32-2.8-3.48-4.2v-34c12.76 16.61 26.46 32.58 38.09 49.94 40.29 60.15 65.16 126.61 78.01 197.64 4.89 27.01 8.27 54.26 8.24 81.77-.03 21.62.4 43.33-1.31 64.85-5.1 64.12-20.5 125.72-47.34 184.36-18.26 39.9-41.27 76.77-69.26 110.54-2.01 2.42-4.29 4.61-6.45 6.9v-34Z" class="waves"/>
<path d="M2048 196v107c-.37-.73-.78-1.45-1.1-2.2-22.07-53.54-51.96-102.16-90.99-145.1-36.9-40.58-79.68-73.52-128.36-98.64C1763.48 24 1695.09 6.47 1623.32 1.6c-6.78-.46-13.55-1.06-20.32-1.6h55c2.1.4 4.19 1.1 6.3 1.16 25.44.75 50.63 3.74 75.7 8.04 53.77 9.23 104.92 26.13 153.02 52.05 56.18 30.28 103.86 70.61 143.33 120.71 3.76 4.78 7.76 9.36 11.66 14.03ZM0 1852v-107c7.66 16.24 14.71 32.79 23.07 48.65 31.89 60.53 74.64 112.07 129.01 153.78 50.57 38.8 107.02 65.57 168.53 81.85 30.56 8.09 61.57 13.64 93.11 16.14 10.1.8 20.19 1.71 30.28 2.56h-52c-2.43-.41-4.85-.95-7.3-1.2-24.43-2.46-49.06-3.68-73.27-7.53-54.49-8.67-106.39-25.68-155.15-51.86-54.67-29.35-101.56-68.06-140.57-116.31-5.18-6.41-10.47-12.73-15.71-19.09Z"/>
<path d="M2048 1743c-4.45-11.96-9.33-23.78-13.26-35.91-10.9-33.58-17.92-67.99-22.31-103.04-3.95-31.5-4.92-63.11-3.47-94.7 2.78-60.3 14.56-118.89 36.66-175.23.57-1.46 1.57-2.76 2.37-4.13v60c-.2.44-.48.87-.6 1.33-12.53 46.47-18.37 93.88-18.82 141.9-.28 30.62 1.82 61.22 7.03 91.42 3.33 19.25 8.21 38.24 12.39 57.34v61ZM0 305c4.45 11.96 9.29 23.79 13.27 35.91 11.42 34.83 18.57 70.61 22.89 106.97 3.58 30.16 4.33 60.49 2.9 90.75-2.85 60.13-14.55 118.54-36.49 174.75-.63 1.63-1.7 3.08-2.57 4.62v-60c.2-.44.48-.87.6-1.33 12.59-46.63 18.39-94.22 18.82-142.41.27-30.45-1.85-60.88-7.03-90.92C9.06 404.09 4.18 385.1 0 366v-61Z" class="waves"/>
<path d="M0 1936v-51c1.07 1.04 2.2 2.03 3.19 3.14 21.69 24.32 45.59 46.23 71.91 65.45 53.54 39.1 112.95 65.14 177.45 79.91 29.19 6.68 58.68 11.23 88.59 12.93 5.96.34 11.9 1.04 17.85 1.57h-46c-1.93-.4-3.84-1.09-5.78-1.14-31.46-.93-62.56-4.81-93.4-11.04-69.59-14.06-133.61-40.92-191.05-82.93-7.63-5.58-15.18-11.25-22.77-16.88ZM1689 0h46c2.09.4 4.17 1.01 6.28 1.17 5.97.44 11.95.71 17.93 1.03 28.92 1.57 57.46 5.88 85.68 12.21 65.39 14.65 125.69 40.77 179.93 80.4 7.76 5.67 15.45 11.46 23.17 17.19v51c-.72-.68-1.49-1.32-2.15-2.06-17.27-19.25-35.76-37.23-55.93-53.45-52.09-41.9-110.7-70.82-175.15-88.18-31.01-8.35-62.48-14.04-94.5-16.69-10.42-.86-20.85-1.74-31.27-2.62Z"/>
<path d="M1603 0c6.77.54 13.54 1.14 20.32 1.6 71.78 4.87 140.16 22.4 204.23 55.46 48.68 25.12 91.47 58.05 128.36 98.64 39.03 42.93 68.91 91.55 90.99 145.1.31.76.73 1.47 1.1 2.2v59c-2.72-8.15-5.5-16.29-8.15-24.46-19.13-58.99-47.66-112.94-86.76-161.15-37.67-46.45-82.67-84.2-135.06-113.12-48.31-26.66-99.89-44.09-154.09-53.64-19.9-3.51-40.16-5.04-60.27-7.36C1595.8 1.36 1587.89.75 1580 0h23ZM2048 721c-6.45 13.85-12.45 27.92-19.42 41.5-47.06 91.73-115.87 161.82-208.33 208.08-45.82 22.93-94.29 37.68-144.83 45.88-28.44 4.62-57.05 7.15-85.83 7.8-2.46.06-4.93 0-7.42-.96 7.12-.51 14.24-1.04 21.37-1.53 71.49-4.88 139.61-22.28 203.48-55.15 50.13-25.8 93.95-59.81 131.49-101.91 51.18-57.39 85.96-123.67 107.27-197.3.54-1.86 1.47-3.61 2.22-5.41v59ZM0 1327c6.29-13.55 12.13-27.33 18.93-40.62 47.12-92.07 116.02-162.53 208.81-208.96 45.82-22.93 94.3-37.68 144.84-45.88 28.44-4.62 57.05-7.13 85.84-7.79 2.46-.06 4.93 0 7.42.96-7.12.51-14.25 1.04-21.37 1.53-72.35 4.92-141.23 22.69-205.7 56.28-49.23 25.65-92.25 59.36-129.3 100.76-32 35.76-57.74 75.58-78.07 118.93-11.8 25.15-21.4 51.17-29.09 77.88-.58 2.03-1.53 3.95-2.3 5.92v-59ZM444 2048c-10.09-.86-20.18-1.76-30.28-2.56-31.54-2.51-62.55-8.06-93.11-16.14-61.51-16.28-117.96-43.05-168.53-81.85-54.37-41.71-97.12-93.26-129.01-153.78C14.71 1777.79 7.66 1761.24 0 1745v-59c2.44 7.37 4.94 14.73 7.31 22.12 18.98 59.01 47.13 113.16 85.98 161.58 37.75 47.05 82.93 85.35 135.76 114.56 51.27 28.35 105.99 46.74 163.85 55.37 22.95 3.42 46.21 4.84 69.32 7.21 1.94.2 3.85.77 5.78 1.16h-24Z" class="waves"/>
<path d="M0 1187c13.89-13.89 27.25-28.36 41.77-41.55 41.23-37.47 88.47-65.33 140.27-85.59 39.35-15.39 80.05-25.83 121.94-30.75 26.05-3.06 52.39-3.66 78.6-5.31 1.77-.11 3.57.21 5.35.95-7.76.51-15.53.96-23.29 1.54-101.99 7.62-195.13 39.14-276.3 102.7-32.32 25.3-60.39 54.79-84.92 87.67-.94 1.26-2.27 2.24-3.42 3.35v-33ZM2048 861c-13.89 13.89-27.25 28.36-41.77 41.55-41.23 37.46-88.44 65.4-140.27 85.57-38.4 14.95-78.11 24.88-118.96 30.4-26.41 3.57-52.9 5.75-79.55 5.74-2.46 0-4.92-.24-7.37-1 7.6-.51 15.2-.99 22.8-1.52 69.93-4.92 136.74-21.68 199.46-53.39 50.44-25.51 94.94-58.99 132.6-101.26 10.29-11.55 19.75-23.82 29.63-35.74 1.01-1.22 2.28-2.24 3.43-3.35v33ZM359 2048c-5.95-.53-11.89-1.23-17.85-1.57-29.92-1.7-59.4-6.25-88.59-12.93-64.5-14.77-123.92-40.81-177.45-79.91-26.33-19.23-50.22-41.13-71.91-65.45-.99-1.11-2.13-2.1-3.19-3.14v-33c5.24 6.36 10.53 12.68 15.71 19.09 39.01 48.26 85.9 86.96 140.57 116.31 48.76 26.18 100.66 43.19 155.15 51.86 24.21 3.85 48.83 5.07 73.27 7.53 2.45.25 4.87.79 7.3 1.2h-33ZM1689 0c10.42.87 20.85 1.75 31.27 2.62 32.01 2.65 63.48 8.34 94.5 16.69 64.45 17.35 123.06 46.28 175.15 88.18 20.17 16.22 38.65 34.2 55.93 53.45.66.74 1.43 1.38 2.15 2.06v33c-3.89-4.67-7.89-9.26-11.66-14.03-39.47-50.11-87.15-90.43-143.33-120.71-48.1-25.92-99.24-42.82-153.02-52.05-25.07-4.3-50.26-7.3-75.7-8.04-2.11-.06-4.2-.76-6.3-1.16h31Z" class="waves"/>
<path d="M2048 1682c-4.18-19.11-9.06-38.09-12.39-57.34-5.22-30.2-7.32-60.8-7.03-91.42.45-48.02 6.29-95.43 18.82-141.9.13-.47.4-.89.6-1.33v292ZM0 366c4.18 19.1 9.06 38.09 12.39 57.34 5.18 30.04 7.3 60.46 7.03 90.92C19 562.45 13.2 610.04.6 656.67c-.13.47-.4.89-.6 1.33V366Z"/>
<path d="M2048 112c-7.72-5.73-15.41-11.51-23.17-17.19-54.24-39.64-114.54-65.75-179.93-80.4-28.23-6.33-56.77-10.64-85.68-12.21-5.98-.32-11.96-.59-17.93-1.03-2.11-.16-4.19-.76-6.28-1.17h39c1.14.2 2.27.49 3.41.6 18.17 1.67 36.4 2.86 54.5 5.07 37.68 4.6 74.27 13.85 109.95 26.8 37.7 13.69 72.95 32.08 106.13 54.53v25ZM0 1936c7.59 5.63 15.15 11.31 22.77 16.88 57.45 42.01 121.46 68.87 191.05 82.93 30.84 6.23 61.94 10.11 93.4 11.04 1.94.06 3.85.75 5.78 1.14h-39c-1.14-.2-2.27-.49-3.41-.59-18.17-1.68-36.4-2.87-54.5-5.08-37.68-4.59-74.27-13.85-109.95-26.8C68.43 2001.84 33.19 1983.43 0 1961v-25Z" class="waves"/>
<path d="M0 1961c33.19 22.43 68.43 40.84 106.13 54.53 35.68 12.95 72.27 22.21 109.95 26.8 18.11 2.21 36.33 3.4 54.5 5.08 1.15.11 2.27.39 3.41.59h-42c-2.1-.41-4.18-.98-6.29-1.19-22.93-2.37-45.99-3.82-68.78-7.17-53.62-7.91-104.58-24.53-152.8-49.38-1.26-.65-2.75-.84-4.13-1.25v-28ZM2048 87c-33.19-22.44-68.43-40.84-106.13-54.53-35.68-12.95-72.28-22.21-109.95-26.8-18.1-2.21-36.33-3.4-54.5-5.07-1.15-.11-2.27-.39-3.41-.6h42c2.09.41 4.16.98 6.27 1.19 22.94 2.36 46 3.81 68.79 7.17 53.62 7.91 104.58 24.53 152.81 49.39 1.26.65 2.75.84 4.13 1.25v28ZM0 1083c1.99-.7 4.09-1.19 5.95-2.15 46.64-24 96.03-39.86 147.68-48.14 23.73-3.81 47.83-5.6 71.84-7.3 14.9-1.05 29.93-.19 44.9-.61-54.6 2.12-107.86 11.67-159.48 29.91C71.47 1068.64 34.55 1087.49 0 1111v-28ZM2048 965c-1.99.7-4.09 1.19-5.95 2.15-46.64 24.03-96.04 39.88-147.72 48.14-23.74 3.8-47.84 5.59-71.85 7.3-14.57 1.04-29.27.19-43.9.62 97.48-4.59 188.15-30.75 269.41-86.21v28Z"/>
<path d="M2048 59c-1.38-.41-2.87-.6-4.13-1.25-48.23-24.85-99.19-41.47-152.81-49.39-22.79-3.36-45.85-4.81-68.79-7.17-2.11-.22-4.18-.79-6.27-1.19h43c14.04 1.2 28.09 2.29 42.11 3.62 30.45 2.89 60.45 8.53 89.7 17.33 19.32 5.81 38.14 13.31 57.19 20.05v18ZM0 1989c1.38.41 2.87.6 4.13 1.25 48.22 24.85 99.18 41.47 152.8 49.38 22.78 3.36 45.85 4.81 68.78 7.17 2.12.22 4.2.79 6.29 1.19h-43c-.97-.2-1.93-.49-2.91-.58-15.87-1.36-31.76-2.41-47.6-4.08-28.09-2.96-55.76-8.4-82.73-16.73-18.81-5.81-37.19-13.03-55.76-19.62v-18Z" class="waves"/>
<path d="M0 2007c18.57 6.59 36.95 13.81 55.76 19.62 26.97 8.33 54.64 13.76 82.73 16.73 15.83 1.67 31.73 2.72 47.6 4.08.98.08 1.94.38 2.91.58h-36c-1.92-.41-3.82-1.03-5.77-1.19-13.24-1.07-26.5-1.85-39.72-3.08-27.64-2.58-54.81-7.85-81.64-14.94-8.62-2.28-17.25-4.52-25.87-6.78v-15ZM2048 41c-19.04-6.74-37.86-14.24-57.19-20.05-29.25-8.8-59.25-14.44-89.7-17.33C1887.08 2.29 1873.04 1.2 1859 0h36c1.92.4 3.83 1.01 5.77 1.17 13.24 1.07 26.5 1.89 39.72 3.09 28.15 2.57 55.77 8.17 83.11 15.24 8.15 2.11 16.27 4.33 24.4 6.5v15ZM2048 998c-9.91 2.59-19.82 5.2-29.73 7.77-25.58 6.62-51.49 11.48-77.81 13.98-17.36 1.65-34.73 3.25-52.13 4.43-8.27.56-16.61.1-24.91-.23 61.96-3.37 122.03-15.25 179.67-38.58 1.68-.68 3.28-1.57 4.91-2.37v15ZM0 1050c8.95-2.34 17.9-4.66 26.84-7.01 29.76-7.79 59.92-13.23 90.6-15.76 14.07-1.16 28.13-2.57 42.22-3.41 8.28-.49 16.61-.09 24.91.24-62.12 3.36-122.33 15.36-180.11 38.74-1.53.62-2.97 1.46-4.46 2.2v-15Z"/>
<path d="M2048 26c-8.13-2.17-16.25-4.39-24.4-6.5-27.34-7.07-54.95-12.67-83.11-15.24-13.22-1.21-26.49-2.02-39.72-3.09-1.94-.16-3.85-.77-5.77-1.17h49c17.28 1.55 34.64 2.51 51.82 4.82 17.49 2.36 34.79 6.06 52.18 9.18v12ZM0 2022c8.62 2.26 17.25 4.5 25.87 6.78 26.83 7.1 53.99 12.37 81.64 14.94 13.22 1.23 26.49 2.01 39.72 3.08 1.94.16 3.84.78 5.77 1.19h-49c-17.28-1.55-34.64-2.51-51.82-4.82-17.49-2.36-34.79-6.06-52.18-9.18v-12Z" class="waves"/>
<path d="M2048 1016c-33.71 4.56-67.43 9.09-100.57 7.6 33.23-1.7 67.18-5.56 100.57-13.6v6ZM0 1032c22.97-2.27 45.93-4.54 68.9-6.8.99-.1 2.01-.03 2.99-.19 3.11-.51 6.22-1.59 9.31-1.53 6.8.12 13.59.81 17.05 1.04-30.91 1.58-64.86 5.44-98.26 13.48v-6ZM2048 14c-17.39-3.11-34.69-6.82-52.18-9.18C1978.64 2.5 1961.28 1.55 1944 0h29c8.22.76 16.44 1.41 24.65 2.3 16.79 1.83 33.57 3.79 50.35 5.7v6ZM0 2034c17.38 3.11 34.69 6.82 52.18 9.18 17.18 2.32 34.54 3.27 51.82 4.82H75c-8.05-.76-16.11-1.41-24.15-2.29-16.96-1.84-33.9-3.8-50.85-5.71v-6Z"/>
<path d="M2048 8c-16.78-1.91-33.56-3.87-50.35-5.7-8.2-.89-16.43-1.54-24.65-2.3h75v8ZM0 2040c16.95 1.91 33.89 3.87 50.85 5.71 8.04.87 16.1 1.53 24.15 2.29H0v-8ZM1549.04 2047.42c-7.41-.41-14.89-.36-22.23-1.32-20.91-2.71-41.93-4.93-62.6-8.94-82.9-16.08-157.66-49.91-221.93-105.19-73.63-63.32-121.94-142.98-149.65-235.62-8.78-29.35-14.87-59.27-18.72-89.62-3.91-30.77-5.33-61.72-4.01-92.7 2.89-67.5 16.54-132.72 42.97-195.05 22.09-52.1 51.78-99.37 90.22-141.07 68.24-74.02 152.62-119.41 250.33-141 26.62-5.88 53.57-9.89 80.85-11.31 4.92-.26 9.83-.76 14.74-1.15l.12 1.29c-4.6.48-9.2 1.03-13.81 1.44-59.45 5.22-116.6 19.4-170.96 44.18-54.89 25.02-103.17 59.36-144.39 103.49-62.89 67.32-102.39 146.81-122.7 236.24-6.12 26.93-10 54.17-12.17 81.72-2.13 26.96-2.48 53.92-.58 80.84 5.37 76.02 24.13 148.47 59.6 216.18 49.83 95.11 122.95 166.08 220.73 211.03 41.59 19.12 85.2 31.87 130.44 38.81 17.84 2.74 35.8 4.72 53.71 7.05.01.23.03.46.04.68ZM1522.8 1022.24c4.85-.5 9.7-1.05 14.55-1.48 49.11-4.34 96.78-15.01 142.86-32.6 50.23-19.18 95.91-46.11 136.66-81.2 44.67-38.46 80.53-84.03 108.37-135.95 26.45-49.33 44.12-101.72 54.21-156.68 4.56-24.85 7.91-49.92 8.26-75.23.29-21.29 1.02-42.66-.28-63.88-3.42-55.9-14.93-110.21-35-162.58-19.21-50.1-45.27-96.29-79.34-137.86-35.86-43.76-78.23-79.85-127.37-107.9-50.9-29.05-105.42-48.07-163.2-57.5-19.3-3.15-38.85-4.82-58.29-7.18-.46-.06-.91-.28-1.38-1.4 2.83 0 5.66-.18 8.48.03 45.86 3.33 90.96 10.82 134.85 24.86 64.45 20.61 122.32 52.87 172.57 98.31 42.8 38.71 77.09 84.04 103.56 135.33 24.51 47.49 41.59 97.56 50.6 150.15 4.23 24.66 6.71 49.73 8.23 74.72 1.32 21.71 1.28 43.65-.1 65.36-3.73 59.08-16.39 116.29-38.62 171.29-20.19 49.94-47.29 95.71-82.34 136.66-37.78 44.13-82.29 79.92-133.64 107.16-49.51 26.26-102.07 43.35-157.41 51.73-19.69 2.98-39.57 4.67-59.37 6.87-2.25.25-4.54.03-6.82.03-.01-.35-.03-.69-.04-1.04Z" class="waves"/>
<path d="M1588.4 2043.35c-5.76-.72-11.56-1.28-17.29-2.2-39.14-6.29-77.33-16.19-114.13-31.04-61.19-24.69-115.11-60.29-160.9-107.99-65.8-68.55-106.69-150.2-127.5-242.41-6.23-27.59-10.87-55.46-11.88-83.75-.88-24.6-1.99-49.31-.66-73.84 3.28-60.29 16.05-118.7 38.72-174.78 29.05-71.89 71.82-134.26 130.44-185.28 55.31-48.13 118.93-80.88 189.8-99.18 22.78-5.88 46.17-9.43 69.29-13.99 1.36-.27 2.83-.03 4.24.71-12.35 2.23-24.75 4.2-37.04 6.73-80.85 16.66-153.75 50.1-216.68 103.98-57.7 49.4-100.2 109.91-129.73 179.76-16.84 39.83-28.62 81.13-35.39 123.75-3.2 20.14-4.74 40.57-6.31 60.93-1.02 13.26-1.13 26.62-.98 39.93.7 62.02 11.44 122.29 32.35 180.7 20.45 57.13 49.78 109.24 89.26 155.4 50.79 59.38 112.88 102.89 185.78 131 35.93 13.86 72.97 23.46 111.07 29.01 2.58.38 5.12.95 7.68 1.43-.04.37-.09.74-.13 1.11ZM1483.52 1018.47c13.81-2.58 27.68-4.87 41.42-7.79 75.95-16.18 144.81-47.55 205.03-96.92 54.03-44.3 95.45-98.56 125.92-161.33 22.88-47.12 38-96.69 46.59-148.26 6.34-38.02 8.69-76.4 7.01-114.88-3.55-81.3-22.48-158.79-60.34-231.11-47.56-90.86-116.66-160.09-208.99-205.48-43.37-21.32-89.06-35.53-136.71-43.53-6.66-1.12-13.3-2.29-19.86-4.43 3.64.36 7.3.54 10.9 1.09 45.17 6.88 89.05 18.37 131.12 36.48 56.84 24.47 107.02 58.56 149.97 103.19 67.02 69.64 108.16 152.8 128.73 246.67 5.77 26.32 10.09 52.91 11 79.86.82 24.43 2.18 49 .67 73.34-6.29 101.53-35.96 195.44-95.33 278.83-61.74 86.73-144.34 144.73-245.9 176.04-28.48 8.78-57.6 14.62-87.06 18.84-1.37.2-2.78.03-4.18.03v-.65ZM525.23 1025.7c-8.04.84-16.08 1.68-24.13 2.51-40.99 4.25-80.94 13.13-119.85 26.71-55.46 19.36-105.74 47.84-150.21 86.22-54.73 47.22-95.89 104.5-125.15 170.51-19.85 44.79-32.98 91.51-40.31 139.84-5.15 33.95-7.34 68.18-6.06 102.51 2.7 72.86 17.77 142.98 47.84 209.61 22.09 48.94 51.04 93.35 87.78 132.67 41.48 44.39 89.91 79.04 145.06 104.31 39.93 18.29 81.64 31.08 125.01 38.01 19.32 3.09 38.86 4.81 58.29 7.17.6.07 1.18.33 1.67 1.6-7.39-.4-14.85-.3-22.16-1.29-22.53-3.03-45.21-5.49-67.48-9.95-75.75-15.16-144.62-45.83-205.19-94.17-56.81-45.34-100.06-101.5-131.52-166.86-22.57-46.89-37.5-96.21-45.92-147.5-6.11-37.21-8.59-74.74-7.04-112.4 3.03-73.84 18.89-144.74 50.03-212.01 24.74-53.45 57.6-101.23 99.69-142.45 57.45-56.26 125.47-94.29 202.72-116.06 29.63-8.35 59.75-14.31 90.43-17.15 11.25-1.04 22.51-1.9 33.77-2.79.9-.07 1.84.28 2.76.43l-.03.5ZM498.97 1022.36c10.86-1.2 21.73-2.34 32.58-3.61 42.62-5 84.01-15.1 124.09-30.37 50.4-19.2 96.27-46.15 137.14-81.37 45.17-38.92 81.34-85.06 109.32-137.71 25.96-48.85 43.32-100.63 53.32-154.91 4.58-24.85 7.92-49.92 8.27-75.24.3-21.46 1.06-43-.3-64.39-3.57-56.22-15.19-110.82-35.55-163.48-19.18-49.6-45.03-95.31-78.75-136.5-36.17-44.17-78.97-80.48-128.67-108.64-50.56-28.65-104.63-47.42-161.9-56.8-19.3-3.16-38.85-4.82-58.29-7.18-.47-.06-.91-.28-1.38-1.41 2.82 0 5.65-.17 8.45.03 54.14 3.83 107.02 13.7 157.98 32.84 68.47 25.71 128.1 64.7 177.92 118.43 59.74 64.43 98.1 140.21 119.07 225.13 7.26 29.4 11.9 59.22 14.25 89.45 2.35 30.29 2.33 60.49-.03 90.78-5.7 73.15-24.72 142.53-58.35 207.75-25.41 49.28-58.18 93.08-98.97 130.8-64.81 59.92-141.07 97.26-227.06 115.53-25.88 5.5-51.97 9.4-78.4 10.88-4.15.23-8.28.61-12.43.86-.79.05-1.59-.19-2.38-.3.03-.19.05-.38.08-.57Z" class="waves"/>
<path d="M564.54 1029.61c-12.35 2.23-24.75 4.2-37.03 6.74-80.85 16.65-153.75 50.1-216.69 103.98-57.7 49.4-100.2 109.9-129.73 179.75-16.84 39.83-28.63 81.12-35.4 123.75-3.2 20.14-4.76 40.57-6.31 60.93-1.03 13.59-1.15 27.29-.96 40.93 1.02 70.4 14.64 138.27 41.49 203.42 19.88 48.24 46.45 92.44 80.4 132.06 48.21 56.26 106.76 98.35 175.27 126.58 36.86 15.19 75.02 25.73 114.37 32 4.86.77 9.71 1.64 14.46 3.52-3.79-.39-7.61-.62-11.38-1.2-30.23-4.65-60.02-11.24-89.12-20.76-58.38-19.11-111.53-47.74-158.3-87.74-83.69-71.56-134.72-162.63-159.95-268.98-6.91-29.14-11.86-58.65-12.96-88.61-.9-24.59-2-49.3-.67-73.84 3.27-60.29 16.05-118.7 38.71-174.78 29.05-71.9 71.8-134.28 130.43-185.28 59.7-51.93 128.82-85.54 205.72-103.27 17.61-4.06 35.56-6.69 53.36-9.91 1.38-.25 2.84-.03 4.27-.03v.73ZM459.47 1018.4c12.34-2.23 24.73-4.21 37.01-6.74 76.34-15.77 145.77-46.53 206.68-95.68 57.15-46.11 100.33-103.09 131.5-169.32 20.05-42.6 33.77-87.24 42.17-133.6 7.39-40.78 10.53-81.89 8.63-123.18-5.16-112.55-38.38-215.52-107.58-305.55-40.25-52.38-89.89-93.84-148.3-124.8C583.22 34.96 533.96 19 482.5 9.51c-7.62-1.41-15.31-2.45-22.87-4.74 3.6.35 7.22.52 10.78 1.07 48.67 7.42 95.78 20.21 140.7 40.71 53.02 24.2 99.97 56.92 140.42 98.92 66.93 69.48 108 152.52 128.69 246.16 5.85 26.47 10.19 53.23 11.09 80.35.81 24.6 2.04 49.31.65 73.84-3.86 68.11-19.43 133.58-47.76 195.84-28.83 63.35-68.81 118.51-121.36 164.23-55.32 48.13-118.92 80.9-189.8 99.2-22.78 5.88-46.16 9.43-69.28 13.99-1.37.27-2.84.04-4.26.04 0-.24-.02-.48-.02-.72Z" class="waves"/>
<path d="M1111.58.26c18.99 1.97 38.01 3.65 56.95 5.96 34.9 4.25 68.92 12.44 102.13 23.96 61.82 21.44 117.13 53.79 165.13 98.46 62.6 58.27 105.33 128.99 131.84 209.92 11.05 33.73 18.63 68.26 22.85 103.46 3.93 32.75 5.09 65.63 3.43 98.66-2.7 53.62-12.58 105.77-30.22 156.44-21.99 63.16-54.63 120.19-99.66 169.76-66.53 73.23-148.96 119.34-244.96 141.79-29.17 6.82-58.69 11.33-88.61 13.14-6.3.38-12.59.86-18.92 1.03 40.7-3.27 80.72-10.24 119.85-21.98 62.48-18.74 119.12-48.51 169.04-90.62 47.43-40.01 85.02-87.96 113.83-142.86 24.03-45.79 40.84-94.17 50.58-144.88 3.87-20.18 6.79-40.66 8.27-61.15 1.77-24.54 2.89-49.27 1.91-73.83-2.92-73.38-19.4-143.69-50.61-210.39-18.3-39.13-41.15-75.34-68.99-108.34-37.36-44.29-81.6-80.19-132.54-107.82-49.27-26.72-101.86-43.73-156.98-53.03-17.99-3.03-36.2-4.76-54.3-7.08l-.03-.6Z"/>
<path d="M1209.58 1022.11c52.14-5.6 102.86-17.03 151.55-36.88 69.73-28.42 129.3-71 178.14-128.39 53.68-63.08 88.22-135.7 107.03-216.06 6.86-29.3 11.09-58.99 13.24-89.05 2.21-30.82 1.68-61.49-1.05-92.24-5.63-63.36-21.54-123.96-48.36-181.61-25.18-54.12-58.86-102.28-101.95-143.78-63.1-60.77-138-99.56-222.96-119.17-24.96-5.76-50.45-9.21-68.35-12.41 8.68 1.04 24.9 2.51 40.96 5 30.23 4.69 59.91 11.81 88.91 21.67 57.38 19.51 109.38 48.53 155.32 88.13 42.43 36.58 76.95 79.63 104.15 128.6 27.19 48.96 45.73 101.02 56.56 155.93 7.69 38.98 11.63 78.34 10.76 118.01-2.51 114.6-33.82 220.07-102.69 312.77-61.85 83.25-143.61 138.44-242.8 168.07-31.44 9.39-63.5 15.75-96.16 19.08-7.43.76-14.86 1.55-22.29 2.33Z"/>
<path d="M1357.46 10.4c18.58 4.94 37.32 9.33 55.69 14.93 56.63 17.27 108.3 44.15 154.6 81.17 50.11 40.08 89.97 88.69 120.39 145.09 28.52 52.87 47.04 109.13 56.66 168.38 4.05 24.98 6.29 50.09 7.17 75.4.91 26.35-.47 52.53-3.15 78.71-4.17 40.64-12.96 80.26-26.09 118.91-20.07 59.06-49.44 113.03-89.68 160.79-60.37 71.63-136.03 120.05-225.67 146.7-15.74 4.68-31.87 8.08-47.82 12.04-.79.2-1.64.12-2.35.16 14.45-3.78 29.09-7.19 43.48-11.45 62.36-18.48 118.9-47.95 168.91-89.76 53.52-44.76 94.46-99.19 124.37-161.98 20.83-43.71 35.08-89.58 43.57-137.31 7.1-39.97 10.29-80.22 8.58-120.7-4.39-103.96-33.02-200.36-92.42-286.58-43.41-63.01-99.13-112.33-167.17-147.6-40.24-20.86-82.58-35.73-126.94-44.9-.81-.17-1.58-.52-2.36-.79.08-.41.16-.81.25-1.22ZM936.47 1024.9c-57.09 4.87-112.42 16.67-165.49 38.38-45.2 18.49-86.57 43.32-123.85 74.83-43.31 36.62-78.57 79.97-106.29 129.41-29.19 52.07-48.53 107.65-59.35 166.35-7.91 42.94-10.64 86.22-8.53 129.67 3.54 72.98 20.13 142.92 51.51 209.17 28.02 59.15 65.83 111.01 114.89 154.41 58.2 51.49 125.63 85.47 200.88 104.18 27.91 6.94 56.17 11.9 84.87 14.14 3.8.3 7.59.82 11.37 1.68-12.27-.85-24.66-.95-36.8-2.71-23.64-3.42-47.4-6.67-70.67-11.93-75.77-17.11-143.89-50.19-203.09-100.81-50.98-43.59-90.25-96.21-119.32-156.57-21.71-45.08-36.7-92.35-44.88-141.62-3.77-22.73-6.04-45.82-7.26-68.83-1.18-22.4-1.33-44.99.15-67.37 3.86-58.55 16.46-115.26 38.49-169.8 20.18-49.96 47.27-95.73 82.32-136.67 42.39-49.52 93.13-88.24 152.01-116.29 41.08-19.57 84.13-33.01 128.86-40.83 19.92-3.48 40.17-5.12 60.3-7.42 6.59-.75 13.25-.95 19.88-1.4Z"/>
<path d="M838.45 2046.52c-18.27-2.34-36.63-4.16-54.8-7.13-38.65-6.33-76.21-16.77-112.4-31.84-52.31-21.77-99.42-51.66-140.56-90.77-73.02-69.39-118.29-154.37-141.38-251.78-6.83-28.82-11.05-58.04-13.23-87.6-1.89-25.63-2.39-51.25-.62-76.85 6.24-90.59 30.84-175.58 79.5-252.74 66.88-106.04 161.98-173.68 282.92-205.47 28.97-7.61 58.42-12.64 88.29-15.15 4.13-.35 8.25-.8 12.4-.99-77.37 7.78-150.41 29.05-217.35 69.42-68.5 41.31-122.2 97.12-162.39 166.11-31.45 53.99-51.84 112.04-62.94 173.39-4.82 26.67-7.44 53.59-8.41 80.73-3.18 88.99 12.99 174.17 50.73 254.82 43.41 92.75 109.09 165.3 199.22 214.98 47.3 26.07 97.72 43.27 150.81 52.71 16.66 2.96 33.45 5.19 50.18 7.75 0 .13.02.26.03.39Z"/>
<path d="M691.01 2036.48c-29.59-5.31-58-13.32-85.69-23.85-67.59-25.7-126.31-64.76-175.4-117.87-54.09-58.52-90.66-126.92-112.63-203.33-9.21-32.02-15.38-64.63-18.79-97.73-3.09-30.01-3.9-60.17-2.02-90.28 4.92-78.93 24.28-154.03 61.38-224.16 26.41-49.93 60.34-94.06 102.46-131.84 60.69-54.44 131.4-89.27 210.39-107.99 6.61-1.57 13.28-2.9 20.01-3.97-12.17 3.08-24.42 5.91-36.5 9.3-66.81 18.74-127.11 49.95-179.89 95.14-44.78 38.33-80.7 83.84-108.65 135.73-26.64 49.44-44.86 101.86-54.55 157.05-4.24 24.15-6.78 48.71-8.22 73.19-1.34 22.88-1.34 45.98.07 68.86 3.32 53.69 14.41 105.9 33.2 156.4 19.49 52.39 46.48 100.5 82.05 143.68 39.36 47.78 86.43 86.12 141.29 114.87 40.74 21.35 83.66 36.55 128.69 45.86.96.2 1.87.61 2.8.92ZM87.38.66c15.52 1.27 31.1 2.07 46.56 3.91 27.39 3.27 54.47 8.41 81.1 15.75 71.91 19.82 136.37 53.57 191.83 103.67 61.32 55.39 104.4 122.93 132.04 200.6 12.64 35.5 21.34 71.94 26.59 109.2 4.64 32.86 6.39 65.96 5.01 99.09-3.07 73.49-18.7 144.13-49.74 211.09-37.57 81.04-92.45 147.48-166.97 197.16-52.71 35.13-110.5 58.32-172.57 70.34-24.56 4.76-49.61 7.04-74.46 10.25-6.41.83-12.91.94-19.38 1.13 58.51-4.68 115.23-16.91 169.45-39.72 62.95-26.48 117.71-64.66 163.51-115.42 61.79-68.49 100.1-148.73 119.13-238.6 5.76-27.18 10.18-54.59 10.8-82.39.57-25.95 1.63-52.04-.33-77.85-7.22-95.16-35.76-183.39-89.93-262.53-42.22-61.68-96.29-110.4-162.21-145.92C248.75 33.98 196.47 17.15 141.7 7.9 123.72 4.86 105.51 3.15 87.4.83c0-.06-.01-.12-.02-.18Z"/>
<path d="M185.79 1.03c23.63 3.5 47.41 6.2 70.86 10.66 48.78 9.29 95.25 25.56 139.05 49.12 47.84 25.74 89.88 58.83 125.91 99.53 59.88 67.65 97.2 146.55 115.6 234.5 5.15 24.63 7.54 49.88 10.46 74.93 3.02 25.87 2.67 51.9.87 77.83-6.28 90.59-30.9 175.58-79.59 252.73-66.81 105.87-161.79 173.42-282.51 205.25-28.97 7.64-58.42 12.67-88.29 15.19-4.28.36-8.55.81-12.84 1.02 97.31-9.72 186.45-40.73 264.05-101.5 47.78-37.41 86.39-82.88 116.67-135.45 30.85-53.54 51.16-110.95 61.93-171.66 3.56-20.06 6.02-40.45 7.17-60.78 1.38-24.39 2.18-48.96.86-73.33-3.74-69.21-19.69-135.64-48.71-198.76-19.45-42.3-44.1-81.31-74.7-116.42-50.75-58.24-112.37-101-184.48-128.7-36.75-14.12-74.72-23.48-113.59-29.33-9.68-1.46-19.45-2.36-29.18-3.52l.44-1.32Z"/>
<path d="M333.86 1012.65c15.54-4.2 31.97-8.18 48.13-13.09 61.95-18.82 117.84-48.96 167.14-90.99 44.34-37.8 80.04-82.69 107.94-133.8 27.31-50.02 45.96-103.2 55.77-159.25 4.25-24.31 6.3-49.06 8.37-73.69 1.3-15.4 1.54-30.98.96-46.43-4.4-117.49-38.75-224.6-112.56-317.34-60.15-75.58-137.55-126.17-229.75-154.29-15.38-4.69-31.08-8.37-46.56-12.89 11.8 2.8 23.67 5.34 35.39 8.46 61.99 16.46 118.84 43.5 169.64 82.89 52.64 40.81 94.29 90.9 125.86 149.44 28.51 52.87 47.03 109.14 56.63 168.39 4.02 24.82 6.25 49.76 7.14 74.9.94 26.52-.44 52.87-3.15 79.21-4.18 40.64-12.97 80.26-26.11 118.91-20.08 59.06-49.46 113.02-89.71 160.77-60.26 71.49-135.78 119.84-225.22 146.52-15.9 4.74-32.19 8.16-48.31 12.16-.78.19-1.63.12-1.6.11ZM1960.61 2047.54c-18.02-1.67-36.1-2.83-54.04-5.12-31.85-4.07-63.13-10.93-93.74-20.73-64.28-20.58-122.05-52.72-172.13-98.1-57.97-52.52-99.69-116.13-127.5-189.08-14.02-36.78-23.75-74.69-29.66-113.56-5.28-34.79-7.41-69.85-6.03-105 2.67-68.01 16.3-133.75 42.9-196.57 23.54-55.58 55.67-105.59 97.73-149.06 65.05-67.23 143.96-109.66 234.63-130.96 29.15-6.85 58.68-11.35 88.6-13.16 6.41-.39 12.81-.85 19.21-1.06-90.65 7.23-175.24 32.53-251.08 83.92-60.79 41.2-108.59 94.42-144.55 158.28-29.29 52.01-48.58 107.63-59.43 166.32-7.9 42.76-10.63 85.88-8.59 129.17 3.43 72.99 19.95 142.96 51.22 209.25 24.76 52.48 57.4 99.38 98.96 139.92 46.04 44.9 99.35 78.44 159.43 101.3 34.27 13.04 69.59 22.13 105.77 27.76 16.03 2.5 32.2 4.01 48.31 5.96l-.03.51Z"/>
<path d="M1862.6 2046.38c-16.31-1.96-32.69-3.47-48.92-5.99-29.08-4.51-57.66-11.29-85.59-20.65-65.17-21.83-123.29-55.51-173.29-102.88-70.77-67.05-115.47-149.11-139.38-243.02-8.05-31.61-12.9-63.75-15.34-96.32-1.92-25.64-2.38-51.26-.6-76.85 7.27-104.55 38.63-200.76 101.67-285.32 63.53-85.21 147.52-141 249.52-170.01 29.3-8.33 59.12-14.06 89.44-17.14 7.43-.76 14.86-1.55 22.31-2.09-12.97 1.82-25.99 3.34-38.89 5.54-13.25 2.26-26.47 4.84-39.54 7.95-12.92 3.07-25.76 6.58-38.4 10.64-12.65 4.06-25.18 8.61-37.46 13.69-59.08 24.44-111.05 59.39-155.59 105.39-37.67 38.9-67.57 83.1-90.46 132.06-20.37 43.57-34.36 89.14-42.58 136.56-6.07 35.01-9.3 70.26-8.55 105.73 2.28 108.11 30.57 208.43 91.99 298.28 41.3 60.41 94.09 108.39 158.36 143.65 47.35 25.98 97.73 43.27 150.81 52.74 16.76 2.99 33.66 5.2 50.5 7.77v.26Z"/>
<path d="M1714.47 1035.41c-14.14 3.7-28.75 7.1-43.11 11.35-62.37 18.46-118.92 47.93-168.92 89.75-53.24 44.53-94.05 98.63-123.93 161.07-21.05 44-35.45 90.14-44.03 138.19-7.13 39.96-10.3 80.21-8.59 120.69 4.37 103.79 32.91 200.05 92.1 286.18 43.43 63.2 99.26 112.66 167.45 148.03 40.08 20.79 82.25 35.62 126.44 44.8 1.02.21 2 .62 2.75 1.9-15.42-3.9-30.96-7.39-46.24-11.78-66.69-19.15-126.72-50.84-179.1-96.53-52.11-45.46-91.81-100.18-120.55-162.98-20.67-45.18-34.78-92.39-42.07-141.45-3.46-23.3-5.3-46.93-6.23-70.48-.85-21.41-.56-42.99 1.13-64.34 4.77-60.2 18.71-118.28 42.7-173.84 18.99-44 43.51-84.63 74.3-121.34 37.66-44.9 82.26-81.4 133.87-109.28 44.24-23.9 91.26-39.91 140.42-49.94.63-.13 1.32-.02 1.59-.02Z"/>
</svg>